<?xml version="1.0" standalone="no"?>
<!DOCTYPE svg PUBLIC "-//W3C//DTD SVG 1.1//EN" "http://www.w3.org/Graphics/SVG/1.1/DTD/svg11.dtd" >
<!--
2013-9-30: Created.
-->
<svg>
<metadata>
Created by iconfont
</metadata>
<defs>

<font id="iconfont-ali" horiz-adv-x="1024" >
  <font-face
    font-family="iconfont-ali"
    font-weight="500"
    font-stretch="normal"
    units-per-em="1024"
    ascent="896"
    descent="-128"
  />
    <missing-glyph />
    
    <glyph glyph-name="chanpin" unicode="&#58928;" d="M152.128 76.288l619.584 0 0-102.848L152.128-26.56 152.128 76.288 152.128 76.288zM152.128 76.288M836.032 794.56 90.496 794.56C40.512 794.56 0 754.048 0 704l0-333.312c0-49.984 40.512-90.496 90.496-90.496l415.488 0C496.768 306.752 491.584 335.104 491.584 364.672c0 6.336 0.512 12.48 0.96 18.688L103.616 383.36 103.616 434.752l397.76 0C512.32 473.6 532.032 508.544 558.208 537.664L103.488 537.664 103.488 691.84l720-0.384 0-76.736c38.848-11.072 73.984-31.04 103.04-57.6L926.528 704C926.656 754.048 886.08 794.56 836.032 794.56L836.032 794.56zM836.032 794.56M530.432 230.592 281.536 230.592l0-102.848 360.832 0 0 3.904C596.032 152.96 557.12 187.456 530.432 230.592L530.432 230.592zM530.432 230.592M750.08 160.064c-113.728 0-206.336 92.48-206.336 206.272s92.544 206.272 206.336 206.272c113.664 0 206.272-92.544 206.272-206.272C956.288 252.608 863.744 160.064 750.08 160.064L750.08 160.064zM750.08 480.128c-62.72 0-113.792-51.072-113.792-113.792s51.072-113.792 113.792-113.792c62.656 0 113.728 51.072 113.728 113.792S812.736 480.128 750.08 480.128L750.08 480.128zM750.08 480.128M871.36 290.944 1024 128.128 948.8 57.6l-152.64 162.816L871.36 290.944 871.36 290.944zM871.36 290.944"  horiz-adv-x="1024" />

    
    <glyph glyph-name="jiekuandan" unicode="&#58936;" d="M864 768h-704a128 128 0 0 1-128-128v-512a128 128 0 0 1 128-128h704a128 128 0 0 1 128 128V640a128 128 0 0 1-128 128z m64-640a64 64 0 0 0-64-64h-704a64 64 0 0 0-64 64V640a64 64 0 0 0 64 64h704a64 64 0 0 0 64-64v-512zM832 416h-192a32 32 0 0 1 0-64h192a32 32 0 0 1 0 64zM832 288h-192a32 32 0 0 1 0-64h192a32 32 0 0 1 0 64zM832 544h-192a32 32 0 0 1 0-64h192a32 32 0 0 1 0 64zM374.912 598.72a32.512 32.512 0 0 1-45.824 0.064L169.28 438.912a32.256 32.256 0 1 1 45.696-45.632L320 498.304V192a32 32 0 0 1 64 0V498.304l105.088-105.088a32.32 32.32 0 0 1 45.696 45.632L374.912 598.72z"  horiz-adv-x="1024" />

    
    <glyph glyph-name="huankuan" unicode="&#58987;" d="M147.911111 59.733333c-34.133333 0-56.888889 22.755556-62.577778 56.888889v398.222222h847.644445v-125.155555c0-17.066667 11.377778-28.444444 28.444444-28.444445s28.444444 11.377778 28.444445 28.444445V679.822222c0 28.444444-5.688889 51.2-22.755556 73.955556s-45.511111 28.444444-68.266667 28.444444H153.6c-56.888889 0-113.777778-45.511111-113.777778-102.4v-557.511111c5.688889-62.577778 56.888889-108.088889 113.777778-108.088889h426.666667c17.066667 0 28.444444 11.377778 28.444444 28.444445s-11.377778 28.444444-28.444444 28.444444H147.911111zM85.333333 679.822222c0 28.444444 34.133333 51.2 62.577778 51.2h745.244445c11.377778 0 22.755556-5.688889 34.133333-17.066666 5.688889-11.377778 11.377778-22.755556 11.377778-34.133334v-108.088889H91.022222V679.822222zM716.8 327.111111H967.111111c11.377778 0 22.755556-11.377778 22.755556-28.444444s-11.377778-28.444444-22.755556-28.444445h-142.222222c91.022222-51.2 136.533333-153.6 136.533333-261.688889 0-11.377778-11.377778-22.755556-28.444444-22.755555s-28.444444 11.377778-28.444445 28.444444c0 108.088889-56.888889 187.733333-164.977777 250.311111v-199.111111c0-17.066667-11.377778-28.444444-28.444445-28.444444s-28.444444 11.377778-28.444444 28.444444v238.933334c0 5.688889 5.688889 11.377778 11.377777 17.066666 11.377778 0 17.066667 5.688889 22.755556 5.688889zM176.355556 384h398.222222c17.066667 0 28.444444-11.377778 28.444444-28.444444s-11.377778-28.444444-28.444444-28.444445h-398.222222c-17.066667 0-28.444444 11.377778-28.444445 28.444445 0 11.377778 11.377778 28.444444 28.444445 28.444444z m0-113.777778h227.555555c17.066667 0 28.444444-11.377778 28.444445-28.444444s-11.377778-28.444444-28.444445-28.444445h-227.555555c-17.066667 0-28.444444 11.377778-28.444445 28.444445 0 11.377778 11.377778 28.444444 28.444445 28.444444z"  horiz-adv-x="1024" />

    
    <glyph glyph-name="dingdandingdanchaxun" unicode="&#59281;" d="M400.7 35.4H169.6c-19.3 0-33.9 14.6-33.9 33.9V732.7c0 19.3 14.6 33.9 33.9 33.9H700c19.3 0 33.9-14.6 33.9-33.9v-199.5c0-18.6 14-32.6 32.6-32.6s32.6 14 32.6 32.6V732.7c0 26.6-10.3 51.5-28.9 70.2-18.7 18.7-43.6 28.9-70.2 28.9H169.6c-26.6 0-51.5-10.3-70.2-28.9-18.7-18.7-28.9-43.6-28.9-70.2v-663.4c0-26.6 10.3-51.5 28.9-70.2 18.7-18.7 43.6-28.9 70.2-28.9h232.8c18.6 0 32.6 14 32.6 32.6 0 18.2-15.1 32.6-34.3 32.6zM415.9 401.8c0 18.6-14 32.6-32.6 32.6H236.1c-18.6 0-32.6-14-32.6-32.6s14-32.6 32.6-32.6h147.3c17.9 0 32.5 14.6 32.5 32.6zM819.6 116.7l1.5 2.1c23.2 33.7 37 71.4 39.9 108.9 6.1 60.3-10.9 118.4-48 163.6-37 45.2-90.6 73.4-151 79.5-8.5 0.9-16.3 1.3-24 1.3-55.3 0-107.8-20-147.9-56.3-40.3-36.6-65.6-87.6-71.3-143.8-6.1-60.3 10.9-118.4 48-163.6 37-45.2 90.6-73.4 150.9-79.5 9.4-1 17.9-1.5 25.9-1.5 43.7 0 85.5 12.7 120.9 36.7l2 1.4 135.7-129.3h0.8l50.6 52.1v0.8l-134 127.6z m-30.2 118.7c-7.4-75.3-73-134.3-149.4-134.3-4.8 0-9.8 0.2-14.4 0.7-81.5 8-141.5 81.5-133.5 163.9C499.5 341 565 400 641.3 400c4.8 0 9.7-0.2 14.6-0.7 81.5-8.1 141.4-81.6 133.5-163.9zM236.1 234.9c-18.6 0-32.6-14-32.6-32.6s14-32.6 32.6-32.6h99.8c18.6 0 32.6 14 32.6 32.6s-14 32.6-32.6 32.6h-99.8zM666.1 599.7c0 18.6-14 32.6-32.6 32.6H236.1c-18.6 0-32.6-14-32.6-32.6s14-32.6 32.6-32.6h397.4c17.1 0 32.6 15.5 32.6 32.6z"  horiz-adv-x="1024" />

    
    <glyph glyph-name="zhuangxieboyunfei" unicode="&#58949;" d="M439.699394-4.685575999999969c0-48.531394-32.302545-93.401212-82.137212-106.247757-59.050667-15.546182-119.963152 19.238788-135.633455 77.88606a108.109576 108.109576 0 0 0 30.440728 108.047515L101.965576 631.901091l-101.469091 57.716364 36.89503 63.177697 127.317333-73.262546 155.958304-575.208727a109.630061 109.630061 0 0 0 93.184-40.339394l598.822787 159.371636 19.362909-70.531879-592.368484-157.509818zM237.568 695.078788c-5.523394 19.238788 6.454303 39.408485 25.848242 44.900848L794.003394 881.012364c2.792727 0.930909 6.454303 0.930909 9.216 0.930909a37.329455 37.329455 0 0 0 35.964121-27.492849l142.118788-526.646303c5.554424-19.238788-6.454303-39.377455-25.848242-44.869818l-530.525091-140.132848c-2.792727-0.930909-6.485333-0.930909-9.247031-0.93091a37.329455 37.329455 0 0 0-35.995151 27.492849L237.630061 695.078788z m81.206303-16.477091l122.724849-455.214545 459.496727 121.824969-123.624727 455.214546-458.596849-121.82497z m175.290182-365.443879l356.165818 95.26303-19.362909 70.500849L474.763636 383.689697l19.362909-70.500849z m104.292848 179.510303l214.078061 56.785455-19.393939 70.531879-214.078061-56.785455 19.393939-70.531879z"  horiz-adv-x="1055" />

    
    <glyph glyph-name="shouye" unicode="&#58927;" d="M515.072 848.896c1.024 0 4.096 0 6.144-2.048l422.912-422.912c-32.768-2.048-55.296-25.6-55.296-59.392l0-430.08c-3.072-8.192-8.192-14.336-10.24-15.36l-200.704 0c-3.072 0-9.216 6.144-10.24 9.216L667.648 168.96c0 34.816-24.576 59.392-59.392 59.392L417.792 228.352c-34.816 0-59.392-24.576-59.392-59.392l0-239.616c0-2.048 0-9.216-9.216-9.216l-201.728 0c-3.072 0-9.216 6.144-10.24 9.216L137.216 358.4c0 33.792-22.528 58.368-55.296 59.392L508.928 846.848C510.976 848.896 514.048 848.896 515.072 848.896M515.072 889.856C502.784 889.856 489.472 884.736 480.256 875.52l-466.944-466.944c-6.144-6.144-25.6-31.744 6.144-31.744l56.32 0c12.288 0 18.432-6.144 18.432-18.432l0-429.056c0-25.6 25.6-50.176 50.176-50.176L348.16-120.832c31.744 0 50.176 25.6 50.176 50.176L398.336 168.96c0 12.288 6.144 18.432 18.432 18.432l189.44 0c12.288 0 18.432-6.144 18.432-18.432l0-239.616c0-25.6 25.6-50.176 50.176-50.176l201.728 0c25.6 0 44.032 25.6 50.176 50.176L926.72 364.544c0 12.288 6.144 18.432 18.432 18.432l56.32 0c39.936 0 12.288 25.6 12.288 25.6L549.888 875.52C540.672 884.736 527.36 889.856 515.072 889.856L515.072 889.856z"  horiz-adv-x="1024" />

    
    <glyph glyph-name="yewuzhongxin" unicode="&#59340;" d="M62.733786 734.640985l0-697.05674 894.663306 0L957.397093 734.640985 62.733786 734.640985zM907.60813 87.374232 112.523773 87.374232 112.523773 684.852022l795.084357 0L907.60813 87.374232zM322.533834 389.225001l49.789986 0 0-248.948909-49.789986 0 0 248.948909ZM222.954885 538.588821l49.789986 0 0-398.317845-49.789986 0 0 398.317845ZM422.113807 488.803951l49.789986 0 0-348.527858-49.789986 0 0 348.527858ZM720.852702 488.803951l49.789986 0 0-348.527858-49.789986 0 0 348.527858ZM521.692756 588.383924l49.789986 0 0-448.107831-49.789986 0 0 448.107831ZM621.272729 389.225001l49.789986 0 0-248.948909-49.789986 0 0 248.948909Z"  horiz-adv-x="1024" />

    
    <glyph glyph-name="shenqing" unicode="&#58982;" d="M360.597-30.64H210.89c-45.646 0-82.782 37.136-82.782 82.782V715.109c0 45.646 37.136 82.782 82.782 82.782h537.403c45.646 0 82.781-37.136 82.781-82.782v-193.206c0-17.673-14.327-32-32-32s-32 14.327-32 32V715.109c0 10.181-8.601 18.782-18.781 18.782H210.89c-10.181 0-18.782-8.601-18.782-18.782v-662.966c0-10.181 8.601-18.782 18.782-18.782h149.707c17.673 0 32-14.327 32-32s-14.327-32.001-32-32.001zM618.585 571.65H292.35c-17.673 0-32 14.327-32 32s14.327 32 32 32h326.235c17.673 0 32-14.327 32-32s-14.327-32-32-32zM574.587 414.906H292.601c-17.673 0-32 14.327-32 32s14.327 32 32 32h281.986c17.673 0 32-14.327 32-32s-14.327-32-32-32zM482.592 254.915h-188.99c-17.673 0-32 14.327-32 32s14.327 32 32 32h188.99c17.673 0 32-14.327 32-32s-14.327-32-32-32zM453.311-25.976l-3.156 146.626c-5.508 17.409 2.855 35.333 12.959 46.674l263.139 295.372c7.36 8.262 17.431 13.394 28.355 14.45 11.676 1.129 23.359-2.65 32.029-10.374l108.471-96.634c17.425-15.523 18.743-42.595 2.954-60.387l-66.067-74.886c-11.692-13.254-31.915-14.519-45.166-2.826-13.253 11.691-14.519 31.914-2.826 45.166l52.461 59.464-76.253 67.932-246.373-276.553a60.84 60.84 0 0 0 0.272-4.618l1.675-77.806 68.047 7.82a81.528 81.528 0 0 1 3.246 3.442l0.226 0.251 135.027 148.398c11.894 13.07 32.131 14.026 45.205 2.133 13.071-11.895 14.026-32.133 2.133-45.205L634.747 14.182c-3.284-3.678-8.309-8.94-13.809-13.396-12.6-10.207-23.772-12.293-32.53-11.236l-135.097-15.526z m-2.105 143.727a0.203 0.203 0 0 1 0.011-0.026c-0.005 0.008-0.008 0.017-0.011 0.026zM803.003 224.035c-8.355 0-16.701 3.252-22.977 9.725l-98.864 101.965c-12.302 12.688-11.989 32.947 0.699 45.25 12.688 12.3 32.946 11.989 45.249-0.699l98.864-101.965c12.302-12.688 11.989-32.947-0.699-45.25-6.215-6.027-14.248-9.026-22.272-9.026z"  horiz-adv-x="1024" />

    
    <glyph glyph-name="yewuchuli" unicode="&#58882;" d="M583.643877 549.391567c9.288762 0 15.653284 6.192508 15.653284 15.653284v52.980346c0 14.105157 12.55703 24.942046 26.490173 24.942046h196.612128c14.105157 0 26.490173-10.836889 26.490173-24.942046v-52.980346c0-9.288762 6.192508-15.653284 15.653285-15.653284 9.288762 0 15.653284 6.192508 15.653284 15.653284v52.980346c0 31.134554-26.490173 56.0766-57.796742 56.0766H625.787334c-31.134554 0-57.796741-24.942046-57.796741-56.0766v-52.980346c0.172014-9.288762 6.364522-15.653284 15.653284-15.653284zM559.389887 557.648245h329.407022v-496.604738H559.389887zM518.106501 557.648245h-44.895683c-47.475895 0-86.351083-36.294977-86.351083-80.846632v-334.911474c0-44.379641 38.875189-80.846632 86.351083-80.846632h44.895683V557.648245zM974.975978 557.648245h-44.895682v-496.604738h44.895682c47.475895 0 86.351083 36.294977 86.351084 80.846632V476.801613c-0.172014 44.379641-38.875189 80.846632-86.351084 80.846632z"  horiz-adv-x="1448" />

    
    <glyph glyph-name="zongheguanli" unicode="&#58947;" d="M982.784 579.9936l-459.264-263.3728a25.6 25.6 0 0 0-25.4976 0L38.7584 579.9936a25.6 25.6 0 0 0 0 44.3904L497.9712 887.808a25.6 25.6 0 0 0 25.4464 0l459.3152-263.3728a25.6 25.6 0 0 0 0-44.3904zM498.3296 196.3008L85.504 427.2128a25.6 25.6 0 0 1-27.5456-1.6384l-25.9072-18.7904a25.6 25.6 0 0 1 2.304-42.9056l463.7184-265.9328a25.6 25.6 0 0 1 25.4464 0l463.4624 265.728a25.6 25.6 0 0 1 2.2016 43.0592l-23.7568 16.9984a25.6 25.6 0 0 1-27.2896 1.5872l-414.8736-229.0688a25.6 25.6 0 0 0-24.8832 0.0512zM498.3296-17.8176l-412.8768 230.912a25.6 25.6 0 0 1-27.5456-1.6384l-25.9072-18.7904a25.6 25.6 0 0 1 2.304-42.9568l463.7184-265.8816a25.6 25.6 0 0 1 25.4464 0l463.4624 265.728a25.6 25.6 0 0 1 2.2016 43.008l-23.7568 17.0496a25.6 25.6 0 0 1-27.2896 1.5872L523.264-17.92a25.6 25.6 0 0 0-24.8832 0.1024z"  horiz-adv-x="1024" />

    
    <glyph glyph-name="chaxuntongji" unicode="&#58929;" d="M772.84-45.91H543.16V183.48c0 17.79-14.55 32.34-32.34 32.34H70.03V813.91h876.25v-300.93c0-19.35 15.68-35.05 35.02-35.05 19.33 0 35.02 15.7 35.02 35.05V848.95c0 19.35-15.68 35.05-35.02 35.05H35.02C15.68 884 0 868.3 0 848.95v-668.18c0-19.35 15.68-35.05 35.02-35.05h438.11v-191.64H243.47c-19.33 0-35.02-15.7-35.02-35.05 0-19.35 15.68-35.05 35.02-35.05h529.37c19.33 0 35.02 15.7 35.02 35.05 0 19.36-15.68 35.06-35.02 35.06zM692.76 638.34c0 19.35-15.68 35.05-35.02 35.05H228.79c-19.33 0-35.02-15.7-35.02-35.05s15.68-35.05 35.02-35.05h428.95c19.33 0 35.02 15.7 35.02 35.05zM1013.74 103.38L865.01 252.24c15.66 25.48 24.85 55.34 24.85 87.38 0 92.36-75.09 167.5-167.38 167.5s-167.35-75.13-167.35-167.5 75.07-167.5 167.35-167.5c34.97 0 67.44 10.82 94.32 29.24l147.42-147.55a34.917 34.917 0 0 1 24.76-10.27c8.96 0 17.92 3.42 24.76 10.27 13.68 13.7 13.68 35.88 0 49.57zM722.49 242.22c-53.66 0-97.32 43.69-97.32 97.4s43.66 97.4 97.32 97.4 97.34-43.69 97.34-97.4-43.68-97.4-97.34-97.4zM228.79 488.68c-19.33 0-35.02-15.7-35.02-35.05s15.68-35.05 35.02-35.05h241.83c19.33 0 35.02 15.7 35.02 35.05s-15.68 35.05-35.02 35.05H228.79z"  horiz-adv-x="1024" />

    
    <glyph glyph-name="shouli" unicode="&#59035;" d="M704 416c-141.152 0-256-114.848-256-256s114.848-256 256-256 256 114.848 256 256-114.848 256-256 256z m0-448c-105.872 0-192 86.128-192 192s86.128 192 192 192 192-86.128 192-192-86.128-192-192-192zM848.528 232.96a32.048 32.048 0 0 1-45.184 2.656L670.816 117.824l-64.8 64.816a32 32 0 1 1-45.248-45.248l86.128-86.16c6.224-6.24 14.416-9.376 22.624-9.376 7.584 0 15.184 2.672 21.264 8.08l155.088 137.84a32 32 0 0 1 2.656 45.184zM352 32H160c-17.648 0-32 14.352-32 32V608h640v-96a32 32 0 0 1 64 0V768c0 52.944-43.056 96-96 96H160c-52.944 0-96-43.056-96-96v-704c0-52.944 43.056-96 96-96h192a32 32 0 0 1 0 64zM160 800h576c17.648 0 32-14.352 32-32v-96H128v96c0 17.648 14.352 32 32 32zM224 480a32 32 0 0 1 0-64h256a32 32 0 0 1 0 64H224z m128-192H224a32 32 0 0 1 0-64h128a32 32 0 0 1 0 64z"  horiz-adv-x="1024" />

    
    <glyph glyph-name="jiance" unicode="&#58930;" d="M512-106.0864c-15.7696 0-31.744 5.9392-43.6224 18.0224L139.0592 241.0496C118.1696 261.9392 106.496 289.9968 106.496 319.488V609.0752c0 41.3696 22.7328 79.0528 59.5968 98.304l294.2976 154.0096c32.1536 16.7936 70.656 16.7936 103.0144 0l294.2976-154.0096c36.6592-19.2512 59.5968-56.9344 59.5968-98.304v-289.5872c0-29.696-11.4688-57.5488-32.5632-78.4384L555.6224-88.064c-11.8784-12.0832-27.8528-18.0224-43.6224-18.0224zM478.6176 826.9824L184.1152 672.9728C160.3584 660.48 145.408 636.1088 145.408 609.0752v-289.5872c0-19.2512 7.5776-37.2736 21.0944-50.9952L495.8208-60.416c9.0112-9.0112 23.552-9.0112 32.3584 0l329.1136 328.9088c13.7216 13.7216 21.0944 31.744 21.0944 50.9952V609.0752c0 26.8288-14.7456 51.4048-38.7072 63.8976L545.3824 826.9824c-20.8896 10.8544-45.8752 10.8544-66.7648 0zM568.5248 278.3232c-14.7456 0-27.4432 8.8064-32.5632 22.9376l-77.0048 210.3296-39.5264-83.5584c-5.7344-12.0832-18.0224-19.8656-31.5392-19.8656h-126.3616c-10.6496 0-19.456 8.8064-19.456 19.456s8.8064 19.456 19.456 19.456h123.6992l42.5984 90.112c5.9392 12.6976 19.0464 20.48 32.9728 19.8656 14.1312-0.6144 26.2144-9.6256 31.1296-22.7328l75.9808-207.872 31.5392 106.2912c4.3008 14.7456 18.0224 24.9856 33.3824 24.9856h118.784c10.6496 0 19.456-8.8064 19.456-19.456s-8.8064-19.456-19.456-19.456h-115.5072l-34.2016-115.3024c-4.3008-14.7456-16.9984-24.3712-32.3584-24.9856-0.2048-0.2048-0.6144-0.2048-1.024-0.2048z"  horiz-adv-x="1024" />

    
    <glyph glyph-name="genzongdingwei" unicode="&#58907;" d="M512 530.285714c-80.786286 0-146.285714-65.499429-146.285714-146.285714s65.499429-146.285714 146.285714-146.285714 146.285714 65.499429 146.285714 146.285714S592.786286 530.285714 512 530.285714zM512 310.857143c-40.321829 0-73.142857 32.821029-73.142857 73.142857s32.821029 73.142857 73.142857 73.142857 73.142857-32.821029 73.142857-73.142857S552.321829 310.857143 512 310.857143zM1024 420.571429l-75.000686 0C931.392 633.678629 761.678629 803.392 548.571429 820.999314L548.571429 896l-73.142857 0 0-75.000686C262.357943 803.392 92.642743 633.678629 75.000686 420.571429L0 420.571429l0-73.142857 75.000686 0C92.642743 134.321371 262.357943-35.392 475.428571-52.999314L475.428571-128l73.142857 0 0 75.000686C761.678629-35.392 931.392 134.321371 948.999314 347.428571L1024 347.428571 1024 420.571429zM548.571429 20.143543 548.571429 91.428571l-73.142857 0 0-71.285029C302.928457 37.357714 165.357714 174.928457 148.143543 347.428571L219.428571 347.428571l0 73.142857L148.143543 420.571429C165.357714 593.071543 302.928457 730.642286 475.428571 747.856457L475.428571 676.571429l73.142857 0L548.571429 747.856457C721.071543 730.642286 858.642286 593.071543 875.856457 420.571429L804.571429 420.571429l0-73.142857 71.285029 0C858.642286 174.928457 721.071543 37.357714 548.571429 20.143543z"  horiz-adv-x="1024" />

    
    <glyph glyph-name="fahuo" unicode="&#59093;" d="M968.9 544.2l-57.5 52.2c-31 28.1-71.1 43.6-112.9 43.6L640 640l0 80.5c0 62-50.5 112.5-112.5 112.5l-415 0c-62 0-112.5-50.5-112.5-112.5l0-720.5 128 0c0-70.6 57.4-128 128-128s128 57.4 128 128l192 0 64 0c0-70.6 57.4-128 128-128s128 57.4 128 128l128 0L1024 419.8C1024 467.1 1003.9 512.4 968.9 544.2zM925.9 496.8c21.7-19.7 34.1-47.7 34.1-77l0-99.8-128 0L832 570.5c13.3-4.5 25.7-11.8 36.4-21.5L925.9 496.8zM256-64c-35.3 0-64 28.7-64 64s28.7 64 64 64 64-28.7 64-64S291.3-64 256-64zM576 64 366.8 64c-22.2 38.2-63.5 64-110.8 64s-88.7-25.8-110.8-64L64 64l0 656.5c0 26.7 21.8 48.5 48.5 48.5l415 0c26.7 0 48.5-21.8 48.5-48.5l0-80.5L576 64zM768-64c-35.3 0-64 28.7-64 64s28.7 64 64 64 64-28.7 64-64S803.3-64 768-64zM878.8 64c-22.2 38.2-63.5 64-110.8 64s-88.7-25.8-110.8-64L640 64l0 512 128 0 0-320 192 0 0-192L878.8 64z"  horiz-adv-x="1024" />

    
    <glyph glyph-name="rizhongpichuli" unicode="&#58898;" d="M432.128 820.224 432.128 820.224c34.816 0 65.536-14.336 90.112-36.864 16.384-16.384 28.672-36.864 32.768-59.392l102.4 0c10.24 0 18.432-8.192 18.432-18.432l0 0 0-16.384 88.064 0c18.432 0 32.768-14.336 32.768-32.768l0 0L796.672 547.84c36.864-6.144 71.68-24.576 96.256-51.2l0-2.048c32.768-32.768 51.2-77.824 51.2-129.024 0-49.152-20.48-96.256-53.248-129.024l0 0c-24.576-26.624-59.392-43.008-96.256-51.2l0-188.416c0-18.432-14.336-32.768-32.768-32.768l0 0L100.352-35.84c-18.432 0-32.768 14.336-32.768 32.768l0 0 0 655.36c0 18.432 14.336 32.768 32.768 32.768l0 0 86.016 0L186.368 703.488c0 10.24 8.192 18.432 20.48 18.432l0 0 102.4 0c6.144 22.528 18.432 43.008 32.768 59.392C366.592 805.888 399.36 820.224 432.128 820.224L432.128 820.224zM372.736 134.144 372.736 134.144c-10.24 0-18.432 8.192-18.432 18.432 0 10.24 8.192 18.432 18.432 18.432l202.752 0c10.24 0 18.432-8.192 18.432-18.432 0-10.24-8.192-18.432-18.432-18.432L372.736 134.144 372.736 134.144zM372.736 287.744 372.736 287.744c-10.24 0-18.432 8.192-18.432 18.432s8.192 20.48 18.432 20.48l100.352 0c10.24 0 18.432-8.192 18.432-20.48s-8.192-18.432-18.432-18.432L372.736 287.744 372.736 287.744zM372.736 441.344 372.736 441.344c-10.24 0-18.432 8.192-18.432 18.432 0 10.24 8.192 20.48 18.432 20.48l124.928 0c10.24 0 18.432-8.192 18.432-20.48 0-10.24-8.192-18.432-18.432-18.432L372.736 441.344 372.736 441.344zM733.184 547.84 733.184 547.84l0 75.776-55.296 0 0-18.432c0-10.24-8.192-20.48-18.432-20.48l0 0-225.28 0-225.28 0c-10.24 0-20.48 8.192-20.48 20.48l0 0 0 16.384L133.12 621.568l0-591.872 600.064 0 0 155.648c-36.864 8.192-71.68 24.576-96.256 51.2l0 0 0 0c-32.768 32.768-53.248 77.824-53.248 129.024 0 51.2 20.48 96.256 53.248 129.024C661.504 523.264 696.32 539.648 733.184 547.84L733.184 547.84zM866.304 470.016 866.304 470.016c-26.624 26.624-61.44 43.008-102.4 43.008-40.96 0-75.776-16.384-102.4-43.008-26.624-26.624-43.008-61.44-43.008-102.4 0-38.912 16.384-75.776 43.008-100.352 26.624-26.624 61.44-43.008 102.4-43.008 38.912 0 75.776 16.384 102.4 43.008 26.624 24.576 40.96 61.44 40.96 100.352C909.312 406.528 892.928 443.392 866.304 470.016L866.304 470.016 866.304 470.016zM194.56 218.112 194.56 218.112 194.56 218.112 286.72 218.112c10.24 0 18.432-8.192 18.432-20.48l0 0 0-90.112c0-10.24-8.192-18.432-18.432-18.432l0 0L194.56 89.088c-10.24 0-18.432 8.192-18.432 18.432l0 0 0 90.112C176.128 209.92 184.32 218.112 194.56 218.112L194.56 218.112zM266.24 179.2 266.24 179.2l-53.248 0 0-53.248L266.24 125.952 266.24 179.2 266.24 179.2zM194.56 371.712 194.56 371.712 194.56 371.712 286.72 371.712c10.24 0 18.432-8.192 18.432-18.432l0 0L305.152 261.12c0-10.24-8.192-18.432-18.432-18.432l0 0L194.56 242.688c-10.24 0-18.432 8.192-18.432 18.432l0 0 0 90.112C176.128 363.52 184.32 371.712 194.56 371.712L194.56 371.712zM266.24 332.8 266.24 332.8l-53.248 0L212.992 281.6 266.24 281.6 266.24 332.8 266.24 332.8zM194.56 525.312 194.56 525.312 194.56 525.312 286.72 525.312c10.24 0 18.432-8.192 18.432-18.432l0 0 0-90.112c0-10.24-8.192-18.432-18.432-18.432l0 0L194.56 398.336c-10.24 0-18.432 8.192-18.432 18.432l0 0L176.128 506.88C176.128 517.12 184.32 525.312 194.56 525.312L194.56 525.312zM266.24 486.4 266.24 486.4l-53.248 0 0-53.248L266.24 433.152 266.24 486.4 266.24 486.4zM839.68 441.344 839.68 441.344c8.192 8.192 20.48 8.192 26.624 0 8.192-8.192 8.192-20.48 0-26.624l-120.832-120.832c-8.192-8.192-20.48-8.192-26.624 0l0 0-55.296 55.296c-8.192 6.144-8.192 18.432 0 26.624 8.192 8.192 20.48 8.192 26.624 0l43.008-40.96L839.68 441.344 839.68 441.344zM516.096 723.968 516.096 723.968c-4.096 12.288-12.288 22.528-20.48 32.768-16.384 16.384-36.864 26.624-61.44 26.624l0 0c-24.576 0-47.104-10.24-61.44-26.624-8.192-8.192-16.384-20.48-20.48-32.768l81.92 0L516.096 723.968 516.096 723.968zM432.128 685.056 432.128 685.056l-204.8 0 0-30.72 0-30.72 204.8 0 206.848 0 0 30.72 0 30.72L432.128 685.056 432.128 685.056z"  horiz-adv-x="1024" />

    
    <glyph glyph-name="jingjia" unicode="&#58934;" d="M545.667286 0.688941 94.09147 0.688941c-16.545838 0-29.971615-13.423731-29.971615-29.970592l0-3.997034c0-16.550954 13.424754-29.970592 29.971615-29.970592l451.575816 0c16.545838 0 29.979802 13.419637 29.979802 29.970592l0 3.997034C575.647087-12.73479 562.213124 0.688941 545.667286 0.688941zM927.40757 137.808902 575.521221 463.626525l38.651298 38.714743c8.553817-2.122337 17.356296-3.25002 26.158776-3.25002 27.726481 0 55.639205 10.552334 76.993558 31.970132 42.147936 42.213427 43.115983 110.333898 2.15406 151.419641L600.310813 801.805688c-20.074198 20.170388-46.714951 30.160927-73.565483 30.160927-27.909653 0-56.07104-10.800997-77.549214-32.283264-28.16241-28.221762-37.499056-67.871807-28.692482-103.340623L199.803094 475.236957c-8.553817 2.127454-17.356296 3.185552-26.163893 3.185552-27.720342 0-55.634088-10.552334-76.987419-31.969109-42.148959-42.209334-43.115983-110.331851-2.15406-151.353127l119.1681-119.392204c20.074198-20.103874 46.675042-30.160927 73.558319-30.160927 27.90863 0 56.072063 10.806113 77.549214 32.347732 28.16241 28.16241 37.493939 67.812455 28.691459 103.341646l40.058344 40.145325 325.262992-352.540242c21.261233-21.292955 49.049113-32.033577 76.271104-32.033577 25.196869 0 49.89334 9.238408 68.465325 27.849278l28.103058 28.097942C970.276936 31.472038 968.369493 96.723158 927.40757 137.808902zM889.380488 34.906254l-28.097942-28.163433c-8.524141-8.489348-18.950607-10.302647-26.224268-10.302647-12.112875 0-24.194028 5.061272-33.342386 13.926174L477.386156 361.784022c-11.022031 11.985986-26.445302 18.919908-42.680055 19.23304l-1.182942 0c-15.832594 0-31.03483-6.306636-42.246173-17.48421l-40.054251-40.150442c-14.765285-14.798031-20.732184-36.21583-15.703657-56.510038 4.152577-16.731056-0.842181-34.654264-12.987802-46.89096-9.520841-9.488095-22.071691-14.736633-35.308157-14.736633-12.0525 0-23.199375 4.432962-31.317263 12.615319L136.738779 337.244116c-17.578354 17.610076-16.579607 48.330752 2.15406 67.12377 9.273201 9.3039 21.63474 14.424524 34.746362 14.424524 3.996011 0 7.965415-0.497327 11.772115-1.436722 4.774747-1.188058 9.618055-1.749854 14.391778-1.749854 15.671934 0 30.93864 6.118348 42.273802 17.486256l220.667795 221.10577c14.765285 14.731516 20.700461 36.214806 15.671934 56.444547-4.119831 16.73515 0.842181 34.718733 13.020548 46.896076 9.521864 9.552563 22.070668 14.797008 35.308157 14.797008 12.0525 0 23.199375-4.498454 31.31624-12.616342l119.179356-119.385041c17.576307-17.609053 16.576537-48.39215-2.155083-67.125817-9.305947-9.364275-21.63474-14.424524-34.752502-14.424524-3.996011 0-7.958252 0.437975-11.768021 1.436722-4.779863 1.187035-9.614985 1.74883-14.390755 1.74883-15.671934 0-30.937616-6.182816-42.273802-17.545608l-38.626739-38.650275c-11.45796-11.490705-17.732873-27.103288-17.419741-43.337018 0.308015-16.169261 7.209192-31.592532 19.105127-42.581818l350.869183-324.882322C902.776589 77.365274 904.462998 50.016393 889.380488 34.906254z"  horiz-adv-x="1024" />

    
    <glyph glyph-name="zhanghuxinxi" unicode="&#58942;" d="M915.278833 765.725958 108.507296 765.725958c-50.327222 0-91.27175-40.944528-91.27175-91.27175L17.235546 115.326864c0-50.328245 40.944528-91.27175 91.27175-91.27175l806.771537 0c50.328245 0 91.27175 40.944528 91.27175 91.27175L1006.550583 674.454208C1006.550583 724.782453 965.606055 765.725958 915.278833 765.725958zM108.507296 699.211055l806.771537 0c13.651928 0 24.756847-11.105942 24.756847-24.756847l0-79.933517L83.750449 594.520691l0 79.933517C83.750449 688.105113 94.856391 699.211055 108.507296 699.211055zM915.278833 90.570018 108.507296 90.570018c-13.650905 0-24.756847 11.106965-24.756847 24.756847L83.750449 537.730267l856.285231 0L940.03568 115.326864C940.03568 101.67596 928.930761 90.570018 915.278833 90.570018zM851.486948 404.195971 669.425426 404.195971c-18.312064 0-33.29429 14.982226-33.29429 33.29429l0 0c0 18.312064 14.982226 33.29429 33.29429 33.29429L851.486948 470.784552c18.312064 0 33.29429-14.982226 33.29429-33.29429l0 0C884.781238 419.178197 869.799012 404.195971 851.486948 404.195971z"  horiz-adv-x="1024" />

    
    <glyph glyph-name="zichan" unicode="&#58984;" d="M511.999488 829.138196c-245.825778 0-445.138196-199.258183-445.138196-445.138196 0-245.934249 199.312418-445.138196 445.138196-445.138196 245.826801 0 445.138196 199.203948 445.138196 445.138196C957.137685 629.880013 757.825266 829.138196 511.999488 829.138196zM511.999488-5.495922c-215.016075 0-389.495922 174.371376-389.495922 389.495922 0 215.071334 174.479847 389.495922 389.495922 389.495922 215.125569 0 389.495922-174.424588 389.495922-389.495922C901.49541 168.875454 727.124034-5.495922 511.999488-5.495922zM706.746938 384c15.377222 0 27.821649 12.443403 27.821649 27.821649 0 15.32401-12.443403 27.821649-27.821649 27.821649L551.340495 439.643298l142.473899 142.474922c10.867512 10.867512 10.867512 28.472472 0 39.339983s-28.472472 10.867512-39.339983 0l-142.474922-142.473899L369.524566 621.458203c-10.813277 10.867512-28.473495 10.867512-39.341007 0-10.812253-10.867512-10.812253-28.472472 0-39.339983l142.474922-142.474922L317.251016 439.643298c-15.32401 0-27.821649-12.497639-27.821649-27.821649 0-15.377222 12.497639-27.821649 27.821649-27.821649l166.926824 0 0-55.642275L317.251016 328.357725c-15.32401 0-27.821649-12.497639-27.821649-27.821649 0-15.377222 12.497639-27.821649 27.821649-27.821649l166.926824 0 0-139.106198c0-15.377222 12.498662-27.821649 27.821649-27.821649 15.377222 0 27.821649 12.443403 27.821649 27.821649L539.821137 272.715451l166.926824 0c15.377222 0 27.821649 12.443403 27.821649 27.821649 0 15.32401-12.443403 27.821649-27.821649 27.821649L539.820114 328.358749l0 55.642275L706.746938 384.001023z"  horiz-adv-x="1024" />

    
    <glyph glyph-name="caidan" unicode="&#58981;" d="M98.225115 655.142373c-53.963029 0-97.878215 43.915186-97.878215 97.878215s43.914162 97.863888 97.878215 97.863888 97.878215-43.900859 97.878215-97.863888S152.188144 655.142373 98.225115 655.142373zM98.225115 794.0347c-22.623253 0-41.027415-18.404162-41.027415-41.014112 0-22.623253 18.404162-41.027415 41.027415-41.027415s41.027415 18.404162 41.027415 41.027415C139.252531 775.630538 120.848369 794.0347 98.225115 794.0347zM995.2277 724.595188 318.131571 724.595188c-15.711843 0-28.4254 12.727882-28.4254 28.4254s12.713556 28.4254 28.4254 28.4254l677.096129 0c15.711843 0 28.4254-12.727882 28.4254-28.4254S1010.939543 724.595188 995.2277 724.595188zM98.225115 286.128949c-53.963029 0-97.878215 43.914162-97.878215 97.878215s43.914162 97.863888 97.878215 97.863888 97.878215-43.900859 97.878215-97.863888S152.188144 286.128949 98.225115 286.128949zM98.225115 425.021276c-22.623253 0-41.027415-18.404162-41.027415-41.014112 0-22.623253 18.404162-41.027415 41.027415-41.027415s41.027415 18.404162 41.027415 41.027415C139.252531 406.617114 120.848369 425.021276 98.225115 425.021276zM995.2277 355.581764 318.131571 355.581764c-15.711843 0-28.4254 12.727882-28.4254 28.4254s12.713556 28.4254 28.4254 28.4254l677.096129 0c15.711843 0 28.4254-12.727882 28.4254-28.4254S1010.939543 355.581764 995.2277 355.581764zM98.225115-82.884476c-53.963029 0-97.878215 43.914162-97.878215 97.878215s43.914162 97.863888 97.878215 97.863888 97.878215-43.900859 97.878215-97.863888S152.188144-82.884476 98.225115-82.884476zM98.225115 56.006827c-22.623253 0-41.027415-18.404162-41.027415-41.014112 0-22.623253 18.404162-41.027415 41.027415-41.027415s41.027415 18.404162 41.027415 41.027415C139.252531 37.602665 120.848369 56.006827 98.225115 56.006827zM995.2277-13.431661 318.131571-13.431661c-15.711843 0-28.4254 12.727882-28.4254 28.4254 0 15.697517 12.713556 28.4254 28.4254 28.4254l677.096129 0c15.711843 0 28.4254-12.727882 28.4254-28.4254C1023.653099-0.703779 1010.939543-13.431661 995.2277-13.431661z"  horiz-adv-x="1024" />

    
    <glyph glyph-name="liucheng" unicode="&#58892;" d="M66.56 422.4c-5.12-5.12-10.24-12.8-10.24-23.04 0-7.68 2.56-15.36 10.24-23.04l158.72-163.84c5.12-2.56 12.8-7.68 23.04-7.68 7.68 0 17.92 2.56 23.04 10.24l166.4 163.84c5.12 5.12 10.24 12.8 10.24 23.04s-2.56 17.92-10.24 23.04l-166.4 161.28c-5.12 5.12-12.8 10.24-23.04 10.24-7.68 0-15.36-2.56-23.04-10.24l-158.72-163.84zM967.68 814.08c0 7.68-2.56 15.36-10.24 23.04-5.12 5.12-15.36 10.24-23.04 10.24h-253.44c-7.68 0-15.36-2.56-23.04-10.24-5.12-5.12-10.24-15.36-10.24-23.04v-64h-143.36c-7.68 0-15.36-2.56-23.04-10.24-5.12-5.12-10.24-15.36-10.24-23.04v-640c0-7.68 2.56-15.36 10.24-23.04 5.12-5.12 15.36-10.24 23.04-10.24h143.36V-51.2c0-7.68 2.56-15.36 10.24-23.04 5.12-5.12 15.36-10.24 23.04-10.24h253.44c7.68 0 15.36 2.56 23.04 10.24 5.12 5.12 10.24 15.36 10.24 23.04v207.36c0 7.68-2.56 15.36-10.24 23.04-5.12 5.12-15.36 10.24-23.04 10.24h-253.44c-7.68 0-15.36-2.56-23.04-10.24-5.12-5.12-10.24-15.36-10.24-23.04v-15.36h-64c-7.68 0-15.36 2.56-23.04 10.24-5.12 5.12-10.24 15.36-10.24 23.04V640c0 7.68 2.56 15.36 10.24 23.04 5.12 5.12 15.36 10.24 23.04 10.24h64v-64c0-7.68 2.56-15.36 10.24-23.04 5.12-5.12 15.36-10.24 23.04-10.24h253.44c7.68 0 15.36 2.56 23.04 10.24 5.12 5.12 10.24 15.36 10.24 23.04v204.8z"  horiz-adv-x="1024" />

    
    <glyph glyph-name="yingshoukuan" unicode="&#58894;" d="M956.38978 306.121234c-3.87643 11.314957-14.496168 18.918329-26.453101 18.91833H806.955765V776.973331c0 30.834307-25.087238 55.908234-55.908234 55.908234H268.620411c-30.820996 0-55.908234-25.073928-55.908235-55.908234v-451.933767H91.313165a27.956165 27.956165 0 0 1-26.453101-18.890685 27.950022 27.950022 0 0 1 9.309165-31.148639l418.520294-325.007823a27.970499 27.970499 0 0 1 17.143936-5.868911 28.005311 28.005311 0 0 1 17.116291 5.84229l420.104244 325.007823c9.445342 7.315661 13.212216 19.832659 9.335786 31.147615z m-446.528676-298.677588L172.883037 269.131329h67.783256c15.451453 0 27.954117 12.515974 27.954118 27.954117V776.973331h482.42712V297.085446c0-15.437119 12.502664-27.954117 27.954117-27.954117h69.121474L509.861104 7.443646zM637.101381 404.602621h0.026621c15.423809 0 27.954117 12.502664 27.954117 27.926472 0 15.451453-12.502664 27.967428-27.926472 27.981762l-68.481546 0.051194 75.770585 90.266754c9.936807 11.834067 8.408146 29.455133-3.439231 39.39194-11.847377 9.936807-29.482778 8.339546-39.365319-3.439231l-89.078023-106.121618-89.102596 106.121618c-9.854896 11.779801-27.544563 13.376038-39.36532 3.425921-11.847377-9.923497-13.376038-27.557874-3.43923-39.37863l75.719391-90.181771-72.197226 0.054265h-0.027645c-15.423809 0-27.954117-12.502664-27.954117-27.926472 0-15.451453 12.502664-27.967428 27.926472-27.981762l98.626778-0.074743-0.038907-42.476907-98.533605 0.074744h-0.027645c-15.423809 0-27.954117-12.502664-27.954117-27.926473 0-15.451453 12.502664-27.967428 27.926472-27.981762l98.536676-0.074743-0.069624-75.939527c-0.026621-15.437119 12.502664-27.967428 27.927496-27.981762h0.027645c15.423809 0 27.926472 12.502664 27.954117 27.927496l0.069625 75.951813 98.534628-0.074743h0.026621c15.423809 0 27.954117 12.502664 27.954117 27.926472 0 15.451453-12.502664 27.967428-27.926472 27.981762l-98.5377 0.074744 0.038907 42.476906 98.444527-0.073719z"  horiz-adv-x="1024" />

    
    <glyph glyph-name="jigou" unicode="&#58908;" d="M0-128v60.237913h86.817391V775.524174C86.817391 842.039652 138.640696 896 202.573913 896h405.147826c63.933217 0 115.756522-53.960348 115.756522-120.475826v-240.951652h231.513043c63.933217 0 115.756522-53.915826 115.756522-120.475826v-481.858783H1157.565217V-128H0zM665.6 775.524174c0 33.302261-25.911652 60.237913-57.878261 60.237913h-405.147826c-31.966609 0-57.878261-26.935652-57.878261-60.237913v-843.286261h520.904348V775.524174z m347.269565-361.427478c0 33.302261-25.911652 60.237913-57.878261 60.237913h-231.513043v-542.096696h289.391304V414.096696z m-57.878261-150.572522h-173.634782v60.237913h173.634782v-60.237913z m0-180.713739h-173.634782v60.237913h173.634782v-60.237913z m-578.782608 481.903304h-173.634783V624.951652h173.634783v-60.237913z m0-180.713739h-173.634783v60.237913h173.634783V384z m0-180.713739h-173.634783v60.237913h173.634783v-60.237913z m231.513043 361.427478h-173.634782V624.951652h173.634782v-60.237913z m0-180.713739h-173.634782v60.237913h173.634782V384z m0-180.713739h-173.634782v60.237913h173.634782v-60.237913z"  horiz-adv-x="1157" />

    
    <glyph glyph-name="jianshitiaozheng" unicode="&#58888;" d="M991.232 432.128L593.92 855.04c-22.528 24.064-52.224 35.84-81.92 35.84-29.696 0-59.392-11.776-81.92-35.84L32.768 432.128c-45.056-48.128-28.16-87.552 37.888-87.552h71.68V-20.48c0-56.32 46.08-102.4 102.4-102.4h534.016c56.32 0 102.4 46.08 102.4 102.4v365.056h71.68c66.048 0 83.456 39.424 38.4 87.552z m-37.888-36.352h-122.88V-20.48c0-28.16-23.04-51.2-51.2-51.2H245.248c-28.16 0-51.2 23.04-51.2 51.2V395.776H69.632l1.024 1.024 396.8 422.912c12.288 12.8 27.648 19.968 44.544 19.968s32.768-7.168 44.544-19.968l396.8-422.912 1.024-1.024h-1.024zM346.112 266.24v64.512H629.76V299.008c0-3.584 3.072-6.656 6.656-6.656 1.536 0 2.56 0.512 4.096 1.024l68.608 48.64c1.536 1.024 3.072 3.072 3.072 5.632 0 2.048-1.024 4.096-2.56 5.632l-68.608 48.64c-1.024 0.512-2.56 1.024-3.584 1.024-3.584 0-6.656-3.072-6.656-6.656v-31.232h-307.2c-6.144 0-11.264-5.12-11.264-11.264V232.96l11.264 11.264 22.528 22.016zM700.416 280.064l-22.528-22.528v-64.512H394.24v31.232 0.512c0 3.584-3.072 6.656-6.656 6.656-1.536 0-2.56-0.512-4.096-1.024l-68.608-48.64c-1.536-1.024-3.072-3.072-3.072-5.632 0-2.048 1.024-4.096 2.56-5.632l68.608-48.64c1.024-0.512 2.56-1.024 3.584-1.024 3.584 0 6.656 3.072 6.656 6.656V158.72h306.176c6.144 0 11.264 5.12 11.264 11.264V291.84l-10.24-11.776z"  horiz-adv-x="1024" />

    
    <glyph glyph-name="baobiao" unicode="&#58896;" d="M990.792-41H66.424V119.896l179.88 250.872 143.96-162.6c6.744-7.616 16.528-11.576 26.792-11.128a33.216 33.216 0 0 1 25.312 14.144l109.008 156.408 144.64-93.288a33.136 33.136 0 0 1 45.568 9.376l271.224 404.064a33.2 33.2 0 1 1-55.136 37.008L704.608 347.784l-144.16 92.992a33.224 33.224 0 0 1-45.24-8.92l-103.2-148.048-143.584 162.176a33.04 33.04 0 0 1-26.56 11.144 33.176 33.176 0 0 1-25.28-13.816L66.424 233.888V850.16A33.216 33.216 0 0 1 0 850.16v-924.368a33.2 33.2 0 0 1 33.208-33.208h957.576a33.184 33.184 0 0 1 33.208 33.208 33.168 33.168 0 0 1-33.2 33.208z"  horiz-adv-x="1024" />

    
    <glyph glyph-name="hetong" unicode="&#58958;" d="M281.6 435.2h460.8c12.8 0 25.6 12.8 25.6 25.6s-12.8 25.6-25.6 25.6h-460.8c-12.8 0-25.6-12.8-25.6-25.6s12.8-25.6 25.6-25.6zM284.16 281.6h145.92c15.36 0 28.16 12.8 28.16 25.6 0 15.36-12.8 25.6-28.16 25.6h-145.92c-15.36 0-28.16-10.24-28.16-25.6 0-12.8 12.8-25.6 28.16-25.6zM284.16 128h145.92c15.36 0 28.16 12.8 28.16 25.6 0 15.36-12.8 25.6-28.16 25.6h-145.92c-15.36 0-28.16-10.24-28.16-25.6 0-12.8 12.8-25.6 28.16-25.6zM281.6 588.8h460.8c12.8 0 25.6 12.8 25.6 25.6s-12.8 25.6-25.6 25.6h-460.8c-12.8 0-25.6-12.8-25.6-25.6s12.8-25.6 25.6-25.6zM896 844.8h-768c-12.8 0-25.6-12.8-25.6-25.6v-870.4c0-12.8 12.8-25.6 25.6-25.6h384c15.36 0 25.6 10.24 25.6 25.6s-10.24 25.6-25.6 25.6h-358.4v819.2h716.8v-384c0-15.36 10.24-25.6 25.6-25.6s25.6 10.24 25.6 25.6v409.6c0 12.8-12.8 25.6-25.6 25.6zM768 281.6c84.48 0 153.6-69.12 153.6-153.6s-69.12-153.6-153.6-153.6-153.6 69.12-153.6 153.6 69.12 153.6 153.6 153.6m0 51.2c-112.64 0-204.8-92.16-204.8-204.8s92.16-204.8 204.8-204.8 204.8 92.16 204.8 204.8-92.16 204.8-204.8 204.8zM778.24 220.16l20.48-43.52c2.56-2.56 5.12-5.12 7.68-5.12l46.08-5.12c7.68 0 12.8-12.8 5.12-17.92l-35.84-30.72c-2.56-2.56-2.56-5.12-2.56-10.24l10.24-46.08c2.56-7.68-7.68-15.36-15.36-10.24l-40.96 23.04c-2.56 2.56-7.68 2.56-10.24 0l-40.96-23.04c-7.68-5.12-15.36 2.56-15.36 10.24l10.24 46.08c0 2.56 0 7.68-2.56 10.24l-35.84 30.72c-7.68 5.12-2.56 15.36 5.12 17.92l46.08 5.12c2.56 0 7.68 2.56 7.68 5.12l20.48 43.52c5.12 7.68 15.36 7.68 20.48 0z"  horiz-adv-x="1024" />

    
    <glyph glyph-name="strategy" unicode="&#58991;" d="M431.3 84.3h160v-40h-160zM209.6 719.555l42.425-42.426-28.284-28.284-42.426 42.426zM492 831.6h40v-60h-40zM92.4 408.9h60v-40h-60zM511.3 738.3c-176.7 0-311-123.3-311-300 0-126.5 94.3-231.1 171-307.8v-147h66.1v-47h40v47h68v-47h40v47h65.9v147c82.2 82.2 170 181.3 170 307.8 0 176.7-133.3 300-310 300zM411.3 23.4v79.6h200v-79.6h-200zM781.3 438.3c0-111.9-81.7-202.9-158.3-279.5l-11.7-11.8v-4h-79.3v256.3c0 16.5 13.5 30 30 30s30-13.5 30-30c0-12.5-7.6-23.2-18.4-27.7v-41.4c33.2 5.5 58.4 34.3 58.4 69 0 38.7-31.3 70-70 70-19.6 0-37.3-8.1-50-21-12.7 13-30.4 21-50 21-38.7 0-70-31.3-70-70 0-34.7 25.3-63.5 58.4-69v41.4c-10.8 4.5-18.4 15.2-18.4 27.7 0 16.5 13.5 30 30 30s30-13.5 30-30v-256.2h-80.7v4l-11.7 11.7c-36.3 36.3-77.7 80-108.9 128.6-33.9 52.7-50.4 102.1-50.4 150.9 0 37.8 6.9 73.5 20.6 105.9 13.1 31 32 58.4 56.2 81.4 24.2 23 52.9 40.9 85.4 53.3 33.6 12.9 70.3 19.4 108.9 19.4 38.6 0 75.1-6.5 108.7-19.4 32.3-12.4 60.9-30.3 85-53.3 24.1-23 42.9-50.4 55.9-81.4 13.4-32.4 20.3-68 20.3-105.9zM871.6 408.9h60v-40h-60zM800.29 648.884l-28.284 28.284 42.426 42.426 28.284-28.284z"  horiz-adv-x="1024" />

    
    <glyph glyph-name="delegate" unicode="&#59202;" d="M502.1 738v76h-435.1v-860h890v784h-454.9zM907 4h-790v760h335.1v-76h454.9v-684zM237 369h50v-50h-50v50zM317 369h50v-50h-50v50zM787 344l-205.1-205.1-35.4 35.4 144.8 144.7h-284.3v50h284.3l-144.7 144.7 35.4 35.4 205-205.1z"  horiz-adv-x="1024" />

    
    <glyph glyph-name="zhcc_chuku" unicode="&#58997;" d="M396.288 160.1536c2.2528 57.7536 29.2864 340.3776 343.04 352.8704v90.9312c-0.4096 5.12-0.2048 16.7936 8.192 26.0096 9.6256 10.6496 25.3952 13.1072 43.4176 5.5296l4.096-1.8432 176.3328-183.0912c3.4816-3.8912 18.432-21.9136 18.432-42.8032 0-21.9136-18.6368-40.5504-22.3232-44.032l-176.5376-194.1504c-4.5056-4.7104-15.36-14.1312-29.4912-14.1312-10.8544 0-20.6848 5.9392-26.0096 15.5648-3.6864 6.7584-5.3248 15.1552-5.3248 26.624v110.1824c-50.7904 1.2288-199.2704-8.8064-285.9008-159.5392-5.7344-9.8304-14.5408-15.5648-24.1664-15.5648h-9.216l-7.5776 6.7584c-7.5776 7.5776-7.168 17.408-6.9632 20.6848zM722.944 349.3888c19.456 0 31.5392-1.6384 32.1536-1.6384l18.6368-2.4576v-131.4816L935.936 392.192c5.7344 5.5296 10.4448 13.1072 10.4448 15.7696 0 4.3008-4.5056 11.6736-7.7824 15.36l-156.0576 161.9968V472.064h-21.7088c-223.6416 0-292.2496-145.408-312.9344-244.5312 94.0032 108.7488 219.9552 121.856 275.0464 121.856z m-196.8128 225.4848c0 18.0224-14.7456 32.768-32.768 32.768H250.6752c-18.0224 0-32.768-14.7456-32.768-32.768s14.7456-32.768 32.768-32.768h242.688c18.0224 0 32.768 14.7456 32.768 32.768z m-176.7424-256.6144h-98.7136c-18.0224 0-32.768-14.7456-32.768-32.768s14.7456-32.768 32.768-32.768h98.7136c18.0224 0 32.768 14.7456 32.768 32.768s-14.5408 32.768-32.768 32.768z m59.392 112.0256c0 18.0224-14.7456 32.768-32.768 32.768h-125.3376c-18.0224 0-32.768-14.7456-32.768-32.768s14.7456-32.768 32.768-32.768h125.3376c18.2272-0.2048 32.768 14.5408 32.768 32.768z m0 0M822.8864 130.6624v-47.104c0-31.9488-30.72-57.9584-62.8736-57.9584H171.008c-31.9488 0-57.9584 26.0096-57.9584 57.9584V686.8992v3.072c1.6384 30.72 26.8288 55.0912 57.9584 55.0912h603.3408c30.9248 0 56.32-24.3712 57.9584-55.0912v-19.456s35.2256-53.8624 60.8256-87.2448v106.7008c0 13.5168-2.4576 27.0336-6.9632 39.936-16.1792 44.4416-58.9824 76.1856-108.9536 76.1856H168.1408c-54.0672 0-99.5328-36.864-112.4352-87.04-2.4576-9.4208-3.6864-19.2512-3.6864-29.0816V80.896c0-64.1024 52.0192-116.1216 115.9168-116.1216h609.0752c58.9824 0 107.52 43.8272 115.0976 100.7616 0 0 0.8192 153.6-2.2528 150.7328-78.6432-85.6064-66.56-85.8112-66.9696-85.6064z"  horiz-adv-x="1024" />

    
    <glyph glyph-name="shenhe" unicode="&#59015;" d="M753.5 271.1h-90.4c-12.7 0-23 10.3-23 23s10.3 23 23 23h90.4c12.7 0 23-10.3 23-23s-10.3-23-23-23zM793 145.4H635.1c-12.7 0-23 10.3-23 23s10.3 23 23 23H793c12.7 0 23-10.3 23-23s-10.3-23-23-23zM762.3 400.2h-563c-12.7 0-23 10.3-23 23s10.3 23 23 23h563c12.7 0 23-10.3 23-23s-10.3-23-23-23zM473.4 272.8H199.7c-12.7 0-23 10.3-23 23s10.3 23 23 23h273.7c12.7 0 23-10.3 23-23s-10.3-23-23-23zM444.3 145.4H199.7c-12.7 0-23 10.3-23 23s10.3 23 23 23h244.6c12.7 0 23-10.3 23-23s-10.3-23-23-23zM434.1 548.1c-6.5 15.3-15.7 29.1-27.5 40.8-11.8 11.8-25.6 21.1-40.8 27.5-1.3 0.6-2.7 1.1-4 1.6 1.3 1.1 2.5 2.3 3.7 3.5 13.2 13.2 20.6 30.9 20.6 49.6s-7.3 36.3-20.6 49.6c-13.2 13.2-30.9 20.6-49.6 20.6-18.7 0-36.3-7.3-49.6-20.6-13.2-13.2-20.6-30.9-20.6-49.6s7.3-36.3 20.6-49.6c1.2-1.2 2.3-2.3 3.6-3.3-1.4-0.5-2.8-1.1-4.2-1.7-15.3-6.5-29.1-15.7-40.8-27.5-11.8-11.8-21.1-25.6-27.5-40.8-5.9-13.8-9.2-28.4-9.9-43.5-0.2-3.5 1.1-7 3.5-9.5s5.8-4 9.3-4c6.8 0 12.5 5.4 12.8 12.2 2.8 54.7 48 97.7 102.8 97.7 54.9 0 100-42.9 102.8-97.7 0.3-6.8 5.9-12.2 12.8-12.2 3.5 0 6.8 1.4 9.3 4 2.4 2.5 3.7 6 3.5 9.5-1 15-4.4 29.6-10.2 43.4z m-118.4 86.5c-18.5 0-33.6 15.1-33.6 33.6s15.1 33.6 33.6 33.6 33.6-15.1 33.6-33.6-15.1-33.6-33.6-33.6z m0 0M751.2 655.3h-210c-12.7 0-23 10.3-23 23s10.3 23 23 23h210c12.7 0 23-10.3 23-23s-10.2-23-23-23zM751.2 528.1h-210c-12.7 0-23 10.3-23 23s10.3 23 23 23h210c12.7 0 23-10.3 23-23s-10.2-23-23-23zM136.2 47.4c-15.8 0-28.7 13.9-28.7 30.9V754.2c0 17.1 12.9 31 28.7 31h689.1c15.8 0 28.7-13.9 28.7-31v-348.5c0-12.1 9.8-21.8 21.8-21.8 12.1 0 21.8 9.8 21.8 21.8V754.2c0 43-32.5 78-72.4 78h-689c-39.9 0-72.4-35-72.4-78v-675.8c0-43 32.5-78 72.4-78h354.9c12.1 0 21.8 9.8 21.8 21.8v3.4c0 12.1-9.8 21.8-21.8 21.8H136.2zM868.9 63.2c-4.2 4.2-9.9 6.6-15.9 6.6s-11.7-2.3-15.9-6.6l-2.6-2.6c-8.8-8.8-8.8-23 0-31.8l85.6-85.6a22.5 22.5 0 0 1 15.9-6.6c5.8 0 11.5 2.2 15.9 6.6 10.2 10.2 10.2 26.8 0 37l-83 83zM876.2 122.1c9.8 23.3 14.8 48 14.8 73.5s-5 50.2-14.8 73.5c-9.5 22.5-23.1 42.6-40.5 60-17.3 17.4-37.5 31-60 40.5-23.3 9.8-48 14.8-73.5 14.8s-50.2-5-73.5-14.8c-22.5-9.5-42.6-23.1-60-40.5-17.4-17.3-31-37.5-40.5-60-9.8-23.3-14.8-48-14.8-73.5s5-50.2 14.8-73.5c9.5-22.5 23.1-42.6 40.5-60 17.3-17.4 37.5-31 60-40.5 23.3-9.8 48-14.8 73.5-14.8s50.2 5 73.5 14.8c22.5 9.5 42.6 23.1 60 40.5s31 37.5 40.5 60z m-173.9-93.3c-92 0-166.8 74.8-166.8 166.8 0 92 74.8 166.8 166.8 166.8 92 0 166.8-74.8 166.8-166.8 0-92-74.9-166.8-166.8-166.8zM594.7 279.8l-1.8 1.3c-4.5 3.4-11 2.4-14.2-2.3-0.1-0.1-0.2-0.3-0.3-0.5-3.1-4.7-1.6-11.1 3.3-13.9l2-1.1c4.5-2.6 10.3-1.2 13.1 3.1 0 0 0 0.1 0.1 0.1 3 4.3 2 10.1-2.2 13.3zM574.4 247c-5.8 2.5-12.6-0.5-14.6-6.5-5.9-17.2-8.9-35.2-8.9-53.7v-0.3c0-6.3 5.4-11.4 11.7-10.9 5.8 0.4 10.2 5.2 10.2 11v0.1c0 16 2.6 31.6 7.6 46.5 2 5.5-0.6 11.5-6 13.8z m0 0"  horiz-adv-x="1024" />

    
    <glyph glyph-name="baozhengjinruzhangmingxichaxun" unicode="&#58932;" d="M993.28-89.60000000000002l-10.24-10.24c-10.24-10.24-33.28-10.24-43.52 0l-74.24 66.56c-28.16-17.92-58.88-28.16-92.16-28.16-97.28 0-174.08 79.36-174.08 174.08 0 97.28 76.8 174.08 174.08 174.08s174.08-79.36 174.08-174.08c0-35.84-10.24-66.56-28.16-94.72l74.24-66.56c12.8-7.68 10.24-28.16 0-40.96z m-220.16 302.08c-53.76 0-97.28-43.52-97.28-99.84 0-53.76 43.52-99.84 97.28-99.84s97.28 43.52 97.28 99.84-43.52 99.84-97.28 99.84z m104.96 135.68V780.8H140.8v-716.8h378.88c0-38.4 30.72-69.12 43.52-89.6H112.64C79.36-25.600000000000023 51.2 2.5599999999999454 51.2 38.39999999999998v768C51.2 842.24 79.36 870.4 112.64 870.4h791.04c33.28 0 61.44-28.16 61.44-64v-522.24c-20.48 20.48-56.32 51.2-87.04 64z m-389.12 194.56c-23.04 40.96-48.64 71.68-81.92 94.72L450.56 665.6c40.96-28.16 79.36-87.04 112.64-171.52 25.6-64 66.56-125.44 117.76-186.88l-48.64-33.28c-53.76 76.8-92.16 145.92-115.2 199.68l-2.56 5.12c-33.28-120.32-102.4-212.48-202.24-279.04l-33.28 46.08c107.52 71.68 176.64 168.96 209.92 296.96z"  horiz-adv-x="1024" />

    
    <glyph glyph-name="chuku" unicode="&#58881;" d="M842.369507 815.471703h-82.127746v-44.877008h82.127746c20.938792 0 37.973227-17.035651 37.973227-37.974443v-696.943724c0-20.938792-17.034434-37.973227-37.973227-37.973227H180.595413c-20.938792 0-37.973227 17.034434-37.973227 37.973227V732.620252c0 20.938792 17.034434 37.974443 37.973227 37.974443h82.127746V815.471703H180.595413c-45.757617 0-82.850235-37.093834-82.850235-82.851451v-696.943724c0-45.757617 37.093834-82.851451 82.850235-82.851451h661.772877c45.757617 0 82.850235 37.093834 82.850235 82.851451V732.620252c0.001216 45.757617-37.092618 82.851451-82.849018 82.851451zM511.483068 689.873005l157.339548-157.339548-31.693414-31.693414-125.646134 125.647351-125.647351-125.647351-31.693413 31.693414zM261.240476 141.254748h500.485184v-44.821057H261.240476zM489.072539 664.9289h44.821058v-453.356785h-44.821058z"  horiz-adv-x="1024" />

    
    <glyph glyph-name="ruku" unicode="&#58886;" d="M842.885223 815.593334h-82.127746v-44.877008h82.127746c20.938792 0 37.973227-17.035651 37.973226-37.974443v-696.943724c0-20.938792-17.034434-37.973227-37.973226-37.973227H181.112345c-20.938792 0-37.973227 17.034434-37.973227 37.973227V732.743099c0 20.938792 17.034434 37.974443 37.973227 37.974444h82.127746V815.593334H181.112345c-45.757617 0-82.850235-37.093834-82.850235-82.851451v-696.943724c0-45.757617 37.093834-82.851451 82.850235-82.851451h661.772878c45.757617 0 82.850235 37.093834 82.850234 82.851451V732.743099c0 45.757617-37.092618 82.850235-82.850234 82.850235zM511.998784 211.693746L354.658019 369.033294l31.693414 31.693414 125.647351-125.646135 125.64735 125.646135 31.692198-31.693414zM261.757408 141.376379h500.485184v-44.821057H261.757408zM489.588255 689.995852h44.821057v-453.356785h-44.821057z"  horiz-adv-x="1024" />

    
    <glyph glyph-name="zhangwuguanli" unicode="&#58889;" d="M0.1 896h1024v-1023.8H0.1zM512.1-116.1c-67.5 0-133 13.2-194.7 39.3-59.6 25.2-113.1 61.3-159 107.2-45.9 45.9-82 99.4-107.2 159C25.1 251 11.9 316.6 11.9 384.1s13.2 133 39.3 194.7c25.2 59.6 61.3 113.1 107.2 159s99.4 82 159 107.2c61.7 26.1 127.2 39.3 194.7 39.3s133-13.2 194.7-39.3c59.6-25.2 113.1-61.3 159-107.2 45.9-45.9 82-99.4 107.2-159 26.1-61.7 39.3-127.2 39.3-194.7S999.1 251 973 189.4c-25.2-59.6-61.3-113.1-107.2-159-45.9-45.9-99.4-82-159-107.2-61.6-26.1-127.2-39.3-194.7-39.3z m0 956.1c-61.5 0-121.3-12-177.5-35.8-54.3-23-103.1-55.8-144.9-97.7S114.9 615.8 92 561.6c-23.8-56.2-35.8-115.9-35.8-177.5 0-61.6 12.1-121.3 35.8-177.5 23-54.3 55.8-103.1 97.7-144.9s90.6-74.8 144.9-97.7c56.2-23.8 115.9-35.8 177.5-35.8s121.3 12.1 177.5 35.8c54.3 23 103.1 55.8 144.9 97.7 41.9 41.9 74.8 90.6 97.7 144.9C956 262.8 968 322.5 968 384.1c0 61.6-12.1 121.3-35.8 177.5-23 54.3-55.8 103.1-97.7 144.9-41.9 41.9-90.6 74.8-144.9 97.7C633.4 828 573.7 840 512.1 840zM454.9 137.5c-1.8-0.2-3-0.3-4.3-0.3-34-0.3-67.8 1.6-101.6 4.8-24.6 2.4-49.2 4.8-73.7 8.1-16.8 2.2-33.4 5.9-50 9-7.6 1.4-11.5 6.4-13.5 13.7-4.5 16-5.4 32.2-4 48.6 0.8 9.7 1.8 19.4 3.2 29.1 2.5 17.4 13.2 29.1 27.6 38.1 12.4 7.7 26.4 10.9 40.1 15.2 14.5 4.5 29.1 8.6 43.2 14.1 14.5 5.7 27.4 14.2 36.9 27 5.1 6.8 7.6 14.6 7.3 23.1-0.2 6.1-0.6 12.2-1.2 18.3-0.8 7.3-4.4 13.4-9.8 18.3-3.7 3.3-7.2 6.8-11.2 9.8-8.5 6.2-14.1 14.5-17.9 24-2.7 6.8-4.9 13.7-7.5 20.6-0.5 1.4-1.7 3-2.9 3.5-6.8 2.8-12.4 8-15.7 14.7-9.4 18.1-10.4 35.9 2.9 52.9 0.8 1.1 1 2.8 1.1 4.2 1.2 16 1.6 32 3.7 47.9 2.5 18.5 6.7 36.9 15.8 53.6 18.2 33.7 46.3 54.5 83.9 61.5 40.5 7.6 78.9 1 114.7-19.8 20.5-11.9 34.5-29.4 43.2-51.1 8.8-21.9 13.6-44.8 14.9-68.3 0.5-8.4 0.8-16.7 1.2-25 0.1-1.1 0.3-2.5 1-3.2 7.4-7 9.9-15.9 9.6-25.6-0.3-10.5-1.7-20.9-8-29.9-3.5-5.1-8.3-9.1-13.9-11.6-1.5-0.8-2.7-2-3.3-3.5-2.3-6.1-4.3-12.5-6.6-18.6-0.6-1.5-1.8-2.6-3.2-3.3-27.8-11.6-51.9-28.5-72.7-50.3-29.4-30.8-48.4-67-55.4-109.1-7.9-47.7 0.2-92.7 23.2-135.2 1.1-1.7 1.8-3.2 2.9-5.3z m183.5 287.1c98.7 0 178.8-80.1 178.6-178.5-0.2-98.2-80.2-178.1-178.3-178.2-98.7 0-178.9 79.9-178.8 178.4 0 98.5 80 178.3 178.5 178.3zM635 263.1c0-0.1-0.1 0.1-0.2 0.3-13.8 26.2-27.7 52.4-41.4 78.7-1.5 2.9-3.3 4-6.6 3.8-6.6-0.3-13.2-0.1-19.8-0.1-1.2 0-2.4-0.1-4.3-0.3l51.5-88.4h-4.6c-11.3 0-22.6 0.1-34-0.1-1.2 0-3.3-1.1-3.3-1.8-0.3-6.1-0.2-12.2-0.2-18.7h49.5V210h-49.2v-20.4H622v-4.2c0-10.5 0.1-21-0.1-31.5 0-3 0.9-3.8 3.8-3.7 6 0.2 12 0.2 18 0 2.9-0.1 3.8 0.8 3.8 3.8-0.2 10.5-0.1 21-0.1 31.4 0 1.3 0.1 2.7 0.2 4.4h47.2v20.4h-47.1v26.4h47.4c0 5.8-0.1 11.2 0.1 16.6 0.1 2.9-0.7 3.9-3.7 3.8-9.4-0.2-18.8-0.1-28.3-0.1h-8.7l52 88.5c-1.8 0.1-2.9 0.2-4.1 0.2-6.4 0-12.7-0.1-19.1 0.1-2.8 0.1-4.4-0.8-5.7-3.4-14-26.2-28.4-52.7-42.6-79.2z m0 0"  horiz-adv-x="1024" />

    
    <glyph glyph-name="yujingchuzhi" unicode="&#59030;" d="M800.675-6.431249999999977h67.33125a29.8125 29.8125 0 0 0 0-59.56875H155.99375a29.8125 29.8125 0 0 0 0 59.5125h67.33125V537.3375a288.7875 288.7875 0 1 0 577.4625 0l-0.1125-543.76875z m-57.65625 523.9125a231.01875 231.01875 0 1 1-461.86875 0v-523.9125h461.925V517.48125zM517.0625 581.38125a28.6875 28.6875 0 0 0 40.95 0 30.375 30.375 0 0 0 0-42.13125L495.29375 474.7875h103.66875c7.81875-0.05625 15.24375-3.2625 20.5875-8.8875s8.325-13.10625 8.2125-20.8125a31.6125 31.6125 0 0 0-2.25-11.7 31.1625 31.1625 0 0 0-7.14375-30.88125L505.25 286.01250000000005a29.5875 29.5875 0 0 0-42.46875 0 31.33125 31.33125 0 0 0 0 43.65l83.25 85.66875H444.89375a359.94375 359.94375 0 0 0-36.5625 11.86875 30.375 30.375 0 0 0 0 41.9625L517.0625 581.38125z"  horiz-adv-x="1024" />

    
    <glyph glyph-name="kucunsunyi" unicode="&#58976;" d="M204.8 452.164267c0 37.751467 24.439467 86.528 54.749867 108.817066C259.549867 560.981333 477.866667 725.333333 512 725.333333s252.791467-164.590933 252.791467-164.590933c30.037333-22.186667 54.408533-70.724267 54.408533-108.544v-307.029333A68.232533 68.232533 0 0 0 751.104 76.79999999999995H272.896A68.164267 68.164267 0 0 0 204.8 145.16906700000004v306.9952zM580.266667 520.5333330000001h-34.133334l-136.533333-136.533333v-34.133333l85.333333-68.266667-51.2-102.4h34.133334l136.533333 102.4v34.133333l-85.333333 68.266667 51.2 136.533333z"  horiz-adv-x="1024" />

    
    <glyph glyph-name="querenshouhuo" unicode="&#58890;" d="M254 276.58a94.79 94.79 0 1 1 94.79-94.79A94.8 94.8 0 0 1 254 276.58z m0-135.2a40.35 40.35 0 1 0 40.41 40.29A40.4 40.4 0 0 0 254 141.38zM373 572.7H246.73C144.61 572.7 79 405.83 79 389.18v-165.59a57.5 57.5 0 0 1 54.38-57.41 112.34 112.34 0 0 0-0.58 12.58 120.87 120.87 0 1 0 241.75 0 114.34 114.34 0 0 0-0.7-12.69h56.59V515.18A57.5 57.5 0 0 1 373 572.7z m-50-65.91c-0.58-12.46 0-70 0-70H215.41c0 0.23-21-0.7-47-7.34a119 119 0 0 1-32.14-14s36.33 63 54.15 84.19c18.4 22 34 20.15 34 20.15h86.52s12.65-0.54 12.06-13zM697.73 275.3H457.39v-107.83H648c-0.11 44.94 14.92 84.53 49.73 107.83zM768.65 276.58a94.79 94.79 0 1 1 94.79-94.79 94.8 94.8 0 0 1-94.79 94.79z m0-135.2a40.35 40.35 0 1 0 40.41 40.29 40.3 40.3 0 0 0-40.41-40.29zM887.31 681h-372.4v-0.12a57.52 57.52 0 0 1-57.52-57.64v-321.16H945V623.36A57.62 57.62 0 0 1 887.31 681zM698.39 389.6l-44.83-44.83-44.83 44.83-89.66 89.66 44.83 44.83 89.66-89.66 179.32 179.32 44.83-44.83zM890 188.31c0.7-5.36 1.28-16.65 1.28-22.24 36 5.71 53.57 31.56 53.57 59.39V275.3H841.08c30.28-20.15 43.79-49.38 48.92-86.99z"  horiz-adv-x="1024" />

    
    <glyph glyph-name="shenhe1" unicode="&#59157;" d="M482.283364-128H162.112276A141.726506 141.726506 0 0 0 20.543697 13.568579V754.431421A141.726506 141.726506 0 0 0 162.112276 896h640.355337a141.726506 141.726506 0 0 0 141.568579-141.568579v-328.751799a23.031051 23.031051 0 0 0-46.062102 0v328.751799A95.611762 95.611762 0 0 1 802.467613 849.937898H162.112276A95.611762 95.611762 0 0 1 66.605799 754.431421v-740.862842a95.611762 95.611762 0 0 1 95.506477-95.506477h320.171088a23.031051 23.031051 0 0 0 0-46.062102zM773.619576 631.629858H196.895743a23.031051 23.031051 0 0 0 0 46.062102h576.736994a23.031051 23.031051 0 0 0 0-46.062102zM768.44746 440.445815H191.723627a23.031051 23.031051 0 1 0 0 46.062102H768.460621a23.031051 23.031051 0 0 0 0-46.062102zM512.973884 261.816985H193.421345a23.031051 23.031051 0 0 0 0 46.062102h319.526218a23.031051 23.031051 0 0 0 0-46.062102zM418.836109 76.910549h-223.730207a23.031051 23.031051 0 1 0 0 46.062102h223.730207a23.031051 23.031051 0 0 0 0-46.062102zM788.846391 157.663993a107.522106 107.522106 0 1 0 107.522106 107.522106 107.640551 107.640551 0 0 0-107.522106-107.522106z m0 168.96895a61.460004 61.460004 0 1 1 61.460004-61.460004 61.525807 61.525807 0 0 1-61.460004 61.460004zM940.943451-108.259099h-299.535267a62.578655 62.578655 0 0 0-62.512852 62.512852v14.924121a62.578655 62.578655 0 0 0 62.512852 62.512852h299.535267a62.578655 62.578655 0 0 0 62.512852-62.512852v-14.924121a62.578655 62.578655 0 0 0-62.512852-62.512852z m-299.535267 93.887723a16.463911 16.463911 0 0 1-16.45075-16.45075v-14.924121a16.463911 16.463911 0 0 1 16.45075-16.450751h299.535267a16.463911 16.463911 0 0 1 16.45075 16.450751v14.924121a16.463911 16.463911 0 0 1-16.45075 16.45075zM651.791898 1.76352a23.031051 23.031051 0 0 0-19.977791 34.467613l93.887723 164.310097a23.033683 23.033683 0 0 0 39.995065-22.859963l-93.887724-164.310097a23.01789 23.01789 0 0 0-20.017273-11.60765zM921.768456 1.76352a23.01789 23.01789 0 0 0-20.017274 11.60765l-93.887723 164.310097a23.033683 23.033683 0 0 0 39.995065 22.859963l93.887723-164.310097a23.031051 23.031051 0 0 0-19.977791-34.467613z"  horiz-adv-x="1024" />

    
    <glyph glyph-name="jiezhiya" unicode="&#59055;" d="M631.125333-69.063111a50.915556 50.915556 0 0 0-50.915555 50.915555v142.506667c0 28.103111 22.755556 50.915556 50.915555 50.915556h123.960889v46.819555a132.323556 132.323556 0 0 0 264.362667 9.557334c0.113778-0.796444-7.111111-13.937778-26.737778-22.300445-19.569778-8.419556-34.019556 14.563556-34.019555 17.863111a71.509333 71.509333 0 0 1-73.784889 66.048 71.281778 71.281778 0 0 1-68.721778-71.111111v-46.876444h100.010667c28.103111 0 50.915556-22.755556 50.915555-50.915556v-142.506667c0-28.16-22.755556-50.915556-50.915555-50.915555h-285.070223z m274.887111 162.872889a20.366222 20.366222 0 0 1-20.366222 20.366222h-223.971555a20.366222 20.366222 0 0 1-20.366223-20.366222v-81.408c0-11.264 9.102222-20.366222 20.366223-20.366222h223.971555c11.264 0 20.366222 9.102222 20.366222 20.366222v81.408zM295.139556 156.216889h191.544888a26.453333 26.453333 0 1 0 0-52.906667H268.686222a44.145778 44.145778 0 0 0-44.145778 44.088889V636.302222c0 24.348444 19.797333 44.088889 44.145778 44.088889h414.72c24.462222 0 44.145778-19.740444 44.145778-44.088889v-184.433778a26.453333 26.453333 0 1 0-52.906667 0V609.792a17.635556 17.635556 0 0 1-17.635555 17.635556h-361.813334a17.635556 17.635556 0 0 1-17.635555-17.635556v-435.939556c0-9.728 7.850667-17.635556 17.635555-17.635555z m561.493333 272.554667a35.384889 35.384889 0 0 0-35.328 35.384888V744.789333a23.552 23.552 0 0 1-23.608889 23.608889H151.210667a23.552 23.552 0 0 1-23.608889-23.608889v-721.578666c0-13.084444 10.581333-23.608889 23.608889-23.608889h325.404444a35.384889 35.384889 0 0 0 0-70.712889H115.825778A58.936889 58.936889 0 0 0 56.888889-12.174222V780.174222C56.888889 812.714667 83.285333 839.111111 115.825778 839.111111h717.255111c32.540444 0 58.936889-26.396444 58.936889-58.936889v-316.017778a35.384889 35.384889 0 0 0-35.328-35.384888z"  horiz-adv-x="1024" />

    
    <glyph glyph-name="kehu" unicode="&#58917;" d="M555 310.1c41.9 32.8 69 83.7 69 141.1 0 99-80.2 179.2-179.2 179.2-99 0-179.2-80.2-179.2-179.2 0-57.4 27.1-108.3 69-141.1-61.7-35-104.9-98.4-112.3-172.5h67.5c10.9 76 76 134.4 155 134.4s144.1-58.4 155-134.4h67.5c-7.4 74-50.6 137.5-112.3 172.5z m-110.2 29.1c-61.9 0-112 50.1-112 112s50.1 112 112 112 112-50.1 112-112-50.1-112-112-112zM769.6 272c-18.6 0-33.6-15-33.6-33.6s15-33.6 33.6-33.6 33.6 15 33.6 33.6-15 33.6-33.6 33.6zM848 832H176c-49.5 0-89.6-40.1-89.6-89.6v-716.8c0-49.5 40.1-89.6 89.6-89.6h672c49.5 0 89.6 40.1 89.6 89.6V742.4c0 49.5-40.1 89.6-89.6 89.6z m22.4-784c0-24.7-20.1-44.8-44.8-44.8H198.4c-24.7 0-44.8 20.1-44.8 44.8V720c0 24.7 20.1 44.8 44.8 44.8h627.2c24.7 0 44.8-20.1 44.8-44.8v-672zM769.6 406.4c-18.6 0-33.6-15-33.6-33.6s15-33.6 33.6-33.6 33.6 15 33.6 33.6-15 33.6-33.6 33.6z m0 134.4c-18.6 0-33.6-15-33.6-33.6s15-33.6 33.6-33.6 33.6 15 33.6 33.6-15 33.6-33.6 33.6z"  horiz-adv-x="1024" />

    
    <glyph glyph-name="diqu" unicode="&#58887;" d="M494.5 124.5l16.9-18.7 17.1 18.5c2.4 2.6 60.4 65.5 119.4 145.3C729 379.4 770.2 464.7 770.2 523.1c0 68.3-26.6 132.6-74.9 180.9-48.3 48.3-112.6 74.9-180.9 74.9s-132.7-26.6-181-74.9c-48.3-48.3-74.9-112.6-74.9-180.9 0-58.3 40.2-143.5 119.4-253.3 57.5-79.8 114.2-142.7 116.6-145.3zM304.4 523.1c0 115.7 94.1 209.8 209.8 209.8S724 638.8 724 523.1c0-25.5-11.5-60.3-34.1-103.2-19-36-45.5-77.3-79-122.6-38.7-52.4-77.7-98.1-99.3-122.7-21.1 24.5-59 70-96.6 122.1-32.7 45.4-58.7 86.7-77.3 122.8-22 43.1-33.3 78-33.3 103.6z m547.8-345.5c-35.6 15-85.9 27.4-145.4 36l-6.5-45.5c55.7-8 102-19.3 134.1-32.8 32.5-13.7 39.2-25.1 39.2-27.4 0-4.3-16.9-25.9-95.2-45.4-70.9-17.6-165.5-27.4-266.4-27.4-100.9 0-195.5 9.7-266.4 27.4-78.2 19.5-95.2 41.1-95.2 45.4 0 2.3 6.6 13.7 38.9 27.3 31.9 13.5 78 24.8 133.4 32.8l-6.6 45.5c-59.3-8.5-109.3-21-144.7-35.9-44.5-18.8-67-42.2-67-69.7 0-21.6 14-40.9 41.6-57.1 21.3-12.5 51.1-23.6 88.5-32.9 74.4-18.5 172.9-28.7 277.5-28.7s203.1 10.2 277.5 28.7c37.5 9.3 67.2 20.4 88.5 32.9 27.6 16.2 41.6 35.4 41.6 57.1 0 27.4-22.7 50.9-67.4 69.7zM511.4 436.5c48 0 87 39 87 87s-39 87-87 87-87-39-87-87 39.1-87 87-87z m0 128c22.6 0 41-18.4 41-41s-18.4-41-41-41-41 18.4-41 41 18.4 41 41 41z"  horiz-adv-x="1024" />

    
    <glyph glyph-name="icon-test" unicode="&#58909;" d="M808.6 492.8c0 178.8-129.8 308.5-308.5 308.5-170.1 0-308.5-138.4-308.5-308.5 0-125.6 170.6-338.3 262.3-452.6l6.8-8.4c9.6-12 24-18.9 39.5-18.9 15.4 0 29.8 6.9 39.5 18.9l6.8 8.4c91.5 114.3 262.1 327 262.1 452.6z m-310.1-89.4c-62.9 0-114 51.1-114 114s51.1 114 114 114 114-51.1 114-114-51.1-114-114-114zM500.1 828.2c-184.9 0-335.4-150.4-335.4-335.4 0-135 174.5-352.5 268.2-469.4l6.7-8.4c14.8-18.4 36.8-29 60.4-29s45.6 10.6 60.4 29l6.8 8.4C661 140.3 835.4 357.8 835.4 492.8c0 194.3-141 335.4-335.3 335.4z m0-815.3c-15.4 0-29.8 6.9-39.5 18.9l-6.8 8.4c-91.7 114.3-262.3 327-262.3 452.6 0 170.1 138.4 308.5 308.5 308.5 178.8 0 308.5-129.8 308.5-308.5 0-125.6-170.6-338.3-262.3-452.6l-6.8-8.4c-9.5-12-23.9-18.9-39.3-18.9zM498.5 517.4m-87.2 0a87.2 87.2 0 1 1 174.4 0 87.2 87.2 0 1 1-174.4 0ZM612.5 517.4c0 62.9-51.1 114-114 114s-114-51.1-114-114 51.1-114 114-114 114 51.1 114 114z m-201.2 0c0 48.1 39.1 87.2 87.2 87.2s87.2-39.1 87.2-87.2-39.1-87.2-87.2-87.2-87.2 39.1-87.2 87.2z"  horiz-adv-x="1024" />

    
    <glyph glyph-name="ico_caiwuguanli_banliruyuan" unicode="&#59601;" d="M664 656h-400a24 24 0 0 1 0-48h400a24 24 0 0 1 0 48z m0-176h-400a24 24 0 0 1 0-48h400a24 24 0 0 1 0 48z m-160-176h-240a24 24 0 0 1 0-48h240a24 24 0 0 1 0 48zM768 320a192 192 0 1 0-192-192 192 192 0 0 0 192 192z m0-32a160 160 0 1 1 160-160 160 160 0 0 1-160 160zM883.84 144h-157.28L768 184.64a16 16 0 1 1-22.72 22.56l-67.84-67.84a16 16 0 0 1 0-22.72L744.48 48A16 16 0 0 1 768 48a16 16 0 0 1 0 22.56L726.56 112h157.28a16 16 0 1 1 0 32zM800 768v-392a24 24 0 0 0-48 0V768a16 16 0 0 1-16 16H192a16 16 0 0 1-16-16v-704a16 16 0 0 1 16-16h328a24 24 0 0 0 0-48h-432a24 24 0 0 0 0 48h42.08A60.16 60.16 0 0 0 128 64V768a64 64 0 0 0 64 64h544a64 64 0 0 0 64-64z"  horiz-adv-x="1024" />

    
    <glyph glyph-name="ico_caiwuguanli_banlichuyuan" unicode="&#59602;" d="M768 288a160 160 0 1 1 160-160 160 160 0 0 1-160 160z m0 32a192 192 0 1 0-192-192 192 192 0 0 0 192 192zM652.16 144h157.28l-40.64 40.64a16 16 0 1 0 22.72 22.56l67.84-67.84a16 16 0 0 0 0-22.72L791.52 48a16 16 0 0 0-22.72 22.56L809.44 112h-157.28a16 16 0 1 0 0 32zM664 656h-400a24 24 0 0 1 0-48h400a24 24 0 0 1 0 48zM664 480h-400a24 24 0 0 1 0-48h400a24 24 0 0 1 0 48zM504 304h-240a24 24 0 0 1 0-48h240a24 24 0 0 1 0 48zM800 768v-392a24 24 0 0 0-48 0V768a16 16 0 0 1-16 16H192a16 16 0 0 1-16-16v-704a16 16 0 0 1 16-16h328a24 24 0 0 0 0-48h-432a24 24 0 0 0 0 48h42.08A60.16 60.16 0 0 0 128 64V768a64 64 0 0 0 64 64h544a64 64 0 0 0 64-64z"  horiz-adv-x="1024" />

    
    <glyph glyph-name="kucunpandian-" unicode="&#58950;" d="M948.57 471.32L532.7 824.15a32 32 0 0 1-41.4 0L75.43 471.32a32 32 0 1 1 41.4-48.8l11.07 9.39v-463.65a32 32 0 1 1 64 0V485.69v0.5L512 757.78l320.16-271.63v-198.24a32 32 0 1 1 64 0V431.86l11-9.34a32 32 0 1 1 41.4 48.8zM255.85 32.51m12 0l72 0q12 0 12-12l0-72q0-12-12-12l-72 0q-12 0-12 12l0 72q0 12 12 12ZM399.86 32.51m12 0l72 0q12 0 12-12l0-72q0-12-12-12l-72 0q-12 0-12 12l0 72q0 12 12 12ZM256.58 159.62m12 0l72 0q12 0 12-12l0-72q0-12-12-12l-72 0q-12 0-12 12l0 72q0 12 12 12ZM256.58 287.1m12 0l72 0q12 0 12-12l0-72q0-12-12-12l-72 0q-12 0-12 12l0 72q0 12 12 12ZM399.86 160.35m12 0l72 0q12 0 12-12l0-72q0-12-12-12l-72 0q-12 0-12 12l0 72q0 12 12 12ZM543.86 32.51m12 0l72 0q12 0 12-12l0-72q0-12-12-12l-72 0q-12 0-12 12l0 72q0 12 12 12ZM840.31 75.49A101.18 101.18 0 1 1 805.07 40l48.82-48.93a25 25 0 1 1 35.4 35.31z m-87.1 0.17a51.1 51.1 0 1 0 51.1 51.1 51.16 51.16 0 0 0-51.1-51.1z"  horiz-adv-x="1024" />

    
    <glyph glyph-name="anpaipaiche-" unicode="&#58955;" d="M885.11 632c-48.94 48.94-113.77 75.89-182.55 75.89h-31v29a64.07 64.07 0 0 1-64 64H129a64.07 64.07 0 0 1-64-64v-625a44 44 0 0 1 44-44h102a117.23 117.23 0 0 1 230.84 0h149.85a117.23 117.23 0 0 1 230.84 0H917a44 44 0 0 1 44 44V449.41C961 518.19 934 583 885.11 632z m-213.47 11.85h30.91c107.22 0 194.45-87.23 194.45-194.44v-157.08H671.64zM129 736.86h478.52v-444.53H129z m197.38-701.72a53.22 53.22 0 1 0 53.22 53.22 53.28 53.28 0 0 0-53.22-53.22z m380.73 0a53.22 53.22 0 1 0 53.22 53.22 53.28 53.28 0 0 0-53.22-53.22zM897 131.85h-81a117.21 117.21 0 0 1-217.7 0h-163a117.21 117.21 0 0 1-217.7 0H129v96.48h768z"  horiz-adv-x="1024" />

    
    <glyph glyph-name="zidianguanli" unicode="&#58945;" d="M135.8 38.9c-14.9 0-26.5-11.7-26.5-26.5s11.7-26.5 26.5-26.5h859c14.9 0 26.5 11.7 26.5 26.5s-11.7 26.5-26.5 26.5h-859zM1024 865c0 14.9-11.7 26.5-26.5 26.5H31.8C17 891.5 5.3 879.8 5.3 865v-811.8h0.5C2 40.3 0 26.8 0 12.9c0-73.7 55.2-133.7 125.2-136.4h869.6c14.9 0 26.5 11.7 26.5 26.5s-11.7 26.5-26.5 26.5h-868c-41.4 1.6-73.7 38.2-73.7 83.3 0 44 31.3 81.7 71.1 87h796.9v-1.1c56.8 0 102.9 46.2 102.9 102.9V865z m-53.1-663.3c0-25.2-17.4-45.2-41.3-49.2-1.4 0.2-2.9 0.3-4.4 0.3H119.9c-22.7-2.5-43.7-11.1-61.5-24.2V838.4H971v-636.7zM313 466h45c4.3-23.8 13.9-45.9 27.6-64.8L353.9 370c-10.6-10.6-10.6-27.1-0.5-37.7 5.3-5.3 12.2-8 19.1-8 6.9 0 13.3 2.7 18.6 7.4l32.5 32c19.4-13.6 41.9-23 66.2-26.9v-44.4c0-14.9 11.7-26.5 26.5-26.5s26.5 11.7 26.5 26.5v45c23.8 4.3 45.9 13.9 64.8 27.6l31.2-31.7c5.3-5.3 12.2-8 19.1-8 6.9 0 13.3 2.7 18.6 7.4 10.6 10.6 10.6 27.1 0.5 37.7L645 403c13.6 19.4 23 41.9 26.9 66.2h44.4c14.9 0 26.5 11.7 26.5 26.5s-11.7 26.5-26.5 26.5h-45c-4.3 23.8-14 45.9-27.7 64.8l31.8 31.8c10.6 10.6 10.6 27.1 0 37.7s-27.1 10.6-37.7 0l-32-32c-19.4 13.6-41.9 23-66.1 26.9v44.4c0 14.9-11.7 26.5-26.5 26.5s-26.5-11.7-26.5-26.5v-45c-24-4.3-46.1-14-65.1-27.9l-30.9 31.4c-10.6 10.6-27.1 10.6-37.7 0.5-10.6-10.6-10.6-27.1-0.5-37.7l31.8-32.3c-13.5-19.3-22.8-41.7-26.7-65.8H313c-14.9 0-26.5-11.7-26.5-26.5S298.2 466 313 466z m201.7 134.2c58.4 0 106.1-47.8 106.1-106.1S573 388 514.7 388c-58.4 0-106.1 47.8-106.1 106.1s47.7 106.1 106.1 106.1z"  horiz-adv-x="1024" />

    
    <glyph glyph-name="fanganchaxunjitiaozheng" unicode="&#58897;" d="M820.8 459.5H659.4c-70.7 0-128.1 57.3-128.1 128.1V748.9C531.4 819.7 588.7 877 659.4 877h161.3c70.7 0 128.1-57.3 128.1-128.1v-161.3c0.1-70.7-57.3-128.1-128-128.1zM881-4.899999999999977c-10 10.8-9.6 27.6 0.8 38 10.4 10.4 27.2 10.8 38 0.8l96.9-96.9c10-10.8 9.6-27.6-0.8-38-10.4-10.4-27.2-10.8-38-0.8L881-4.899999999999977z m0 0M740.1-71.89999999999998c-115.3 0-208.8 93.5-208.8 208.8s93.5 208.8 208.8 208.8 208.8-93.5 208.8-208.8-93.5-208.8-208.8-208.8z m0 58.3c53.8 0 103.5 28.7 130.4 75.3 26.9 46.6 26.9 104 0 150.5-26.9 46.6-76.6 75.3-130.4 75.3-83.1 0-150.5-67.4-150.5-150.5 0-83.2 67.4-150.6 150.5-150.6z m0 0M289.4-71.89999999999998H128.1C57.3-71.89999999999998 0-14.5 0 56.200000000000045V217.5c0 70.7 57.3 128.1 128.1 128.1h161.3c70.7 0 128.1-57.3 128.1-128.1v-161.3c0-70.7-57.4-128.1-128.1-128.1zM289.4 459.5H128.1C57.3 459.5 0 516.9 0 587.6V748.9C0 819.7 57.3 877 128.1 877h161.3c70.7 0 128.1-57.3 128.1-128.1v-161.3c0-70.7-57.4-128.1-128.1-128.1z"  horiz-adv-x="1024" />

    
    <glyph glyph-name="fengxianpinggu" unicode="&#58895;" d="M532.2 298.8l142.6 280.5c18.6 36.6 55.3 59.3 95.8 59.3h0.5v94.6c0 36-31.8 65.4-70.9 65.4H137.9c-39.1 0-70.9-29.3-70.9-65.4v-698.7c0-36 31.8-65.4 70.9-65.4h562.3c39.1 0 70.9 29.3 70.9 65.5V137.9H628c-37.1 0-71.2 19.1-91.2 51.2l-0.1 0.2-0.1 0.2c-10 16.3-15.7 35-16.4 54.2-0.8 19 3.4 38.1 12 55.1z m-90.6-130.7c-5.8-5.8-13.8-9.4-22.6-9.4H195c-17.6 0-32 14.4-32 32 0 8.8 3.6 16.8 9.4 22.6 5.8 5.8 13.8 9.4 22.6 9.4h224c17.6 0 32-14.4 32-32 0-8.8-3.6-16.8-9.4-22.6z m0 191.5c-5.8-5.8-13.8-9.4-22.6-9.4H195c-17.6 0-32 14.4-32 32 0 8.8 3.6 16.8 9.4 22.6 5.8 5.8 13.8 9.4 22.6 9.4h224c17.6 0 32-14.4 32-32 0-8.8-3.6-16.8-9.4-22.6zM195 542.7c-17.6 0-32 14.4-32 32 0 8.8 3.6 16.8 9.4 22.6 5.8 5.8 13.8 9.4 22.6 9.4h384c17.6 0 32-14.4 32-32 0-8.8-3.6-16.8-9.4-22.6-5.8-5.8-13.8-9.4-22.6-9.4H195zM951.8 269.9L809.2 550.3c-7.6 15-22.5 24.4-38.7 24.4-16.3 0-31.1-9.4-38.7-24.4L589.3 269.9c-7.5-14.9-6.8-32.8 1.9-47 8.2-13.1 21.8-21 36.8-21h285c15 0 28.8 7.9 37 21 8.6 14.2 9.3 32.2 1.8 47zM738.5 428.2c0 17.6 14.4 31.8 31.9 31.8 17.6 0 31.9-14.2 31.9-31.8v-63.4c0-17.6-14.4-31.8-31.9-31.8-17.6 0-31.9 14.2-31.9 31.8v63.4z m31.9-171.3c-17.7 0-31.9 14.4-31.9 32.1s14.4 31.9 31.9 31.9c17.7 0 32.1-14.4 32.1-31.9-0.1-17.8-14.4-32.1-32.1-32.1z"  horiz-adv-x="1024" />

    
    <glyph glyph-name="RectangleCopy" unicode="&#59065;" d="M488.874667 42.666667H296.362667C274.133333 42.666667 256 61.952 256 85.674667V596.992C256 620.714667 274.133333 640 296.362667 640h107.178666a20.650667 20.650667 0 0 1 12.458667 4.48 21.077333 21.077333 0 0 1 10.922667 14.037333A85.76 85.76 0 0 0 510.208 725.333333c40.448 0 75.605333-28.714667 83.626667-68.266666a21.333333 21.333333 0 0 1 20.864-17.066667c0.896 0 1.792 0.170667 2.688 0.256 0.426667-0.042667 0.810667-0.256 1.28-0.256h108.970666c22.229333 0 40.362667-19.285333 40.362667-43.008v-228.992a21.333333 21.333333 0 0 1 42.666667 0V596.992C810.666667 644.224 773.418667 682.666667 727.637333 682.666667H630.613333a128.298667 128.298667 0 0 1-120.405333 85.333333A128.512 128.512 0 0 1 389.973333 682.666667H296.362667C250.581333 682.666667 213.333333 644.224 213.333333 596.992v-511.317333C213.333333 38.442667 250.581333 0 296.362667 0h192.512a21.333333 21.333333 0 0 1 0 42.666667M704 213.333333a64 64 0 1 1 0.042667-128 64 64 0 0 1-0.042667 128M704 42.666667a106.794667 106.794667 0 0 0-106.666667 106.666666c0 58.794667 47.829333 106.666667 106.666667 106.666667s106.666667-47.872 106.666667-106.666667-47.829333-106.666667-106.666667-106.666666m0 256c-15.616 0-30.378667-3.072-44.544-7.552h-124.8v59.989333h124.885333a21.333333 21.333333 0 0 1 0 42.666667h-124.885333v23.936l103.765333 97.877333a21.333333 21.333333 0 0 1-29.269333 31.061333l-98.133333-92.629333-98.176 92.629333a21.376 21.376 0 0 1-29.269334-31.061333l108.416-102.272v-19.541333H360.874667a21.333333 21.333333 0 1 1 0-42.666667h131.114666v-59.989333H360.874667a21.333333 21.333333 0 1 1 0-42.666667h131.114666v-93.781333a21.333333 21.333333 0 0 1 42.666667 0v93.781333h58.496A148.181333 148.181333 0 0 1 554.666667 149.333333c0-82.346667 66.986667-149.333333 149.333333-149.333333s149.333333 66.986667 149.333333 149.333333-66.986667 149.333333-149.333333 149.333334"  horiz-adv-x="1024" />

    
    <glyph glyph-name="RectangleCopy1" unicode="&#59089;" d="M836.010667 696.32c-1.578667 0.768-2.986667 1.706667-4.736 2.090667L516.565333 767.701333C514.56 768.128 512.597333 767.957333 510.634667 767.829333c-0.512 0.085333-1.152-0.042667-1.749334 0h-0.853333C506.112 767.957333 504.106667 768.128 502.058667 767.701333L192.682667 698.410667c-1.792-0.426667-3.242667-1.322667-4.693334-2.133334a21.034667 21.034667 0 0 1-17.365333-20.48v-325.333333c0-1.408 0.597333-2.645333 0.853333-3.968 8.362667-198.101333 173.397333-324.906667 337.066667-348.288A24.746667 24.746667 0 0 1 511.573333-2.005333L512-1.92l0.341333-0.085333a25.472 25.472 0 0 1 3.157334 0.213333c7.850667 1.152 15.872 2.56 23.893333 4.181333a21.376 21.376 0 0 1 16.64 25.173334 21.504 21.504 0 0 1-25.173333 16.64c-6.229333-1.28-12.544-2.346667-18.816-3.285334C363.093333 63.232 213.333333 180.181333 213.333333 361.941333V659.285333l296.064 66.346667 301.226667-66.346667V414.421333a21.333333 21.333333 0 1 1 42.666667 0V675.797333a20.992 20.992 0 0 1-17.28 20.48M533.333333 583.338667a21.333333 21.333333 0 0 1-42.666666 0v-254.208a21.333333 21.333333 0 0 1 42.666666 0V583.338667zM512 265.130667a21.333333 21.333333 0 0 1-21.333333-21.333334v-42.666666a21.333333 21.333333 0 0 1 42.666666 0v42.666666a21.333333 21.333333 0 0 1-21.333333 21.333334M704 265.130667a64 64 0 1 1 0-128.042667 64 64 0 0 1 0 128M704 94.464a106.752 106.752 0 0 0-106.666667 106.666667c0 58.837333 47.829333 106.666667 106.666667 106.666666s106.666667-47.829333 106.666667-106.666666c0-58.88-47.829333-106.666667-106.666667-106.666667m0 256c-82.346667 0-149.333333-66.986667-149.333333-149.333333s66.986667-149.333333 149.333333-149.333334 149.333333 66.986667 149.333333 149.333334-66.986667 149.333333-149.333333 149.333333"  horiz-adv-x="1024" />

    
    <glyph glyph-name="RectangleCopy2" unicode="&#59096;" d="M533.33632 84.778667H308.610987C279.64032 84.778667 256.002987 108.245333 256.002987 137.130667V436.352l256 240.298667 256-240.298667v-116.138667a21.333333 21.333333 0 1 1 42.666666 0V396.330667l6.741334-6.357334a21.077333 21.077333 0 0 1 14.592-5.76 20.949333 20.949333 0 0 1 15.530666 6.741334 21.248 21.248 0 0 1-0.938666 30.122666l-318.208 298.666667A20.906667 20.906667 0 0 1 512.002987 725.248a20.906667 20.906667 0 0 1-16.384-5.504l-318.208-298.666667a21.248 21.248 0 0 1-0.938667-30.122666 20.949333 20.949333 0 0 1 15.530667-6.741334 21.077333 21.077333 0 0 1 14.592 5.76L213.33632 396.330667v-259.2A95.274667 95.274667 0 0 1 308.610987 42.112H533.33632a21.333333 21.333333 0 0 1 0 42.666667M832.002987 215.338667a21.333333 21.333333 0 0 1 0 42.666666H678.018987a106.752 106.752 0 0 1-98.474667 147.541334H415.917653l52.522667 52.48a21.418667 21.418667 0 0 1-30.208 30.208L350.29632 400.213333c-0.170667-0.170667-0.213333-0.426667-0.384-0.554666a21.333333 21.333333 0 0 1 14.592-36.778667h215.082667c35.285333 0 64-28.714667 64-64s-28.714667-64-64-64h-172.373334a21.333333 21.333333 0 0 1 0-42.666667h172.373334c24.832 0 47.402667 8.874667 65.536 23.125334H832.002987zM832.002987 172.672H613.33632a21.333333 21.333333 0 0 1 0-42.666667H832.002987a21.333333 21.333333 0 0 1 0 42.666667M832.002987 85.546667H613.33632a21.333333 21.333333 0 0 1 0-42.666667H832.002987a21.333333 21.333333 0 0 1 0 42.666667"  horiz-adv-x="1024" />

    
    <glyph glyph-name="RectangleCopy3" unicode="&#59098;" d="M533.333333 84.736H308.608C279.637333 84.736 256 108.202667 256 137.088V436.352l256 240.256 256-240.256v-116.181333a21.333333 21.333333 0 1 1 42.666667 0V396.330667l6.741333-6.357334a21.077333 21.077333 0 0 1 14.592-5.76 20.949333 20.949333 0 0 1 15.530667 6.741334 21.248 21.248 0 0 1-0.938667 30.122666l-318.208 298.666667a20.821333 20.821333 0 0 1-16.341333 5.504 20.906667 20.906667 0 0 1-16.384-5.504l-318.250667-298.666667a21.248 21.248 0 0 1-0.938667-30.122666 20.949333 20.949333 0 0 1 15.530667-6.741334 21.077333 21.077333 0 0 1 14.592 5.76L213.333333 396.330667v-259.242667A95.274667 95.274667 0 0 1 308.608 42.069333H533.333333a21.333333 21.333333 0 0 1 0 42.666667M471.125333 490.837333a21.333333 21.333333 0 0 1 0-42.666666h87.125334a21.333333 21.333333 0 0 1 0 42.666666h-87.125334zM599.125333 234.837333c0-11.733333-9.6-21.333333-21.333333-21.333333H448a21.376 21.376 0 0 0-21.333333 21.333333v149.333334h172.458666v-149.333334z m231.125334 23.082667h-188.458667v126.293333h19.541333a21.333333 21.333333 0 0 1 0 42.666667H364.458667a21.333333 21.333333 0 0 1 0-42.666667H384v-149.333333c0-35.328 28.714667-64 64-64h129.792c28.416 0 52.266667 18.688 60.629333 44.373333h191.829334a21.333333 21.333333 0 0 1 0 42.666667zM830.293333 172.586667h-212.48a21.333333 21.333333 0 1 1 0-42.666667h212.48a21.333333 21.333333 0 0 1 0 42.666667M830.293333 85.504h-218.709333a21.333333 21.333333 0 0 1 0-42.666667h218.666667a21.333333 21.333333 0 0 1 0 42.666667"  horiz-adv-x="1024" />

    
    <glyph glyph-name="wuziguanli" unicode="&#59371;" d="M895.799-0.453H127.35l0.3 576.582 128.4 191.881h512.099l127.65-191.881v-576.582z m-78.638 576.582l-71.378 128.087h-454.31l-88.978-128.087h614.666z m14.626-63.794H191.662v-448.173l640.124-0.199V512.335z m0 0M448.087 320.087h256.05v-62.602h-256.05zM481.727 768.072h62.602v-256.05h-62.602zM320.685 192.685h383.451v-64.487H320.685z"  horiz-adv-x="1024" />

    
    <glyph glyph-name="shoukuan" unicode="&#58891;" d="M704.232727 821.682424h106.154667c36.801939 0 81.609697-36.026182 81.609697-65.411879v-750.312727c0-33.419636-25.227636-59.640242-58.088727-59.640242H292.739879c-12.412121 0-34.443636 0.03103-34.443637 59.609212v565.682424c0 20.759273-16.570182 37.546667-36.057212 37.546667-19.48703 0-36.057212-16.787394-36.057212-37.546667v-565.682424C186.181818-78.351515 226.27297-128 292.739879-128h541.168485C906.333091-128 961.939394-69.538909 961.939394 5.926788V756.270545C961.939394 834.094545 879.522909 896 810.387394 896h-106.123636c-19.518061 0-35.312485-16.446061-35.312485-37.174303 0-20.697212 15.825455-37.143273 35.281454-37.143273zM737.652364 485.717333a24.60703 24.60703 0 0 1-34.133334 0L574.060606 359.858424l-129.458424 125.858909a24.60703 24.60703 0 0 1-34.133334 0 22.993455 22.993455 0 0 1 0-33.202424l109.226667-106.185697h-90.453333a23.614061 23.614061 0 0 1-24.141576-23.272727c0-12.939636 10.798545-23.210667 24.141576-23.210667h121.576727v-69.756121h-121.576727a23.614061 23.614061 0 0 1-24.141576-23.272727c0-12.939636 10.798545-23.241697 24.141576-23.241697h121.576727v-70.904243c0-12.939636 10.550303-23.458909 23.893333-23.458909a23.58303 23.58303 0 0 1 23.924364 23.458909v70.904243h120.242424c13.34303 0 24.141576 10.302061 24.141576 23.272727a23.614061 23.614061 0 0 1-24.141576 23.241697h-120.242424v69.756121h120.242424c13.34303 0 24.141576 10.27103 24.141576 23.241697a23.614061 23.614061 0 0 1-24.141576 23.272727h-90.453333l109.226667 106.185697a22.993455 22.993455 0 0 1 0 33.202425zM97.869576 656.135758h461.110303l-61.036606-66.218667c-13.963636-15.142788-13.963636-39.718788 0-54.923636 13.963636-15.142788 36.615758-15.142788 50.641454 0l116.67394 126.510545c10.426182 6.702545 17.408 18.928485 17.408 33.078303 0 13.34303-6.206061 25.010424-15.732364 31.868121l-117.232485 127.131152A34.319515 34.319515 0 0 1 524.381091 864.969697c-9.153939 0-18.307879-3.785697-25.320727-11.388121a41.177212 41.177212 0 0 1 0-54.892606l60.571151-65.660122H97.869576C78.103273 733.028848 62.060606 716.024242 62.060606 694.551273c0-21.410909 16.042667-38.446545 35.80897-38.446546z"  horiz-adv-x="1024" />

    
    <glyph glyph-name="tongji" unicode="&#58940;" d="M496 44.09H100V726.96h824V537h-48V678.96H148v-586.87h348v-48zM924 513H100V727h824z m-776 48h728V679H148zM214 391.02h249.71v-48H214zM214 267.57h199.71v-48H214zM622.26 335.72h48v-204.3h-48zM722.34 283.44h48v-152.01h-48zM822.42 208.17h48v-76.75h-48zM746.34 3a230.77 230.77 0 1 0 163.17 67.6A229.21 229.21 0 0 0 746.34 3z m0 413.51c-100.77 0-182.76-82-182.76-182.75S645.57 51 746.34 51 929.1 133 929.1 233.77s-81.99 182.75-182.76 182.75z"  horiz-adv-x="1024" />

    
    <glyph glyph-name="kuweiguanli" unicode="&#58985;" d="M919.9 153.5c-0.1 0.1-9.9 11.4-20.1 24.7-15.3 20.1-19.1 28.8-20 31.4 0.9 2.5 4.8 10.5 19.7 28.4 10 12.1 19.8 22.2 19.9 22.3 5.2 5.4 6.1 13.7 2.1 20l-54.2 87c-3.6 5.8-10.5 8.8-17.3 7.4-0.2 0-14.4-3-30.6-5-27.1-3.2-35.1-0.6-36.4-0.1-0.9 0.8-6.3 6.2-15.1 28.2-5.4 13.4-9.1 25.8-9.1 25.9-2 7-8.4 11.7-15.7 11.7H637.5c-7.5 0-14.1-5.1-15.9-12.4-0.1-0.1-3-12.1-7.7-25.3-7.6-21-12.9-26.6-13.9-27.5-1.5-0.5-9.5-2.5-34.9 0.7-15.6 1.9-29.4 4.8-29.6 4.9-6.7 1.4-13.6-1.5-17.2-7.4l-54.2-87c-3.8-6.1-3.2-14 1.5-19.4 0.1-0.1 9.4-10.8 18.6-23.7 14.9-20.8 16.7-28.9 16.9-30.4-0.4-1.4-2.8-8.3-16.9-25.2-8.9-10.5-17.5-19.1-17.7-19.2-5.2-5.2-6.4-13.1-2.9-19.5l51.2-93.1c3.6-6.5 11.2-9.8 18.4-8 0.2 0.1 13.9 3.5 29.5 6 25.1 3.9 33.3 1.8 34.7 1.3 1.1-1 6.9-7.1 15.4-30.7 5.4-14.7 9-28.2 9-28.3 1.9-7.2 8.4-12.2 15.9-12.2h105.4c7.3 0 13.7 4.9 15.8 11.9 0 0.2 3.8 13.2 9.4 27.5 9 23.1 14.8 29.2 16 30.1 1.4 0.4 9.6 2.3 34.1-2.1 15.3-2.8 28.8-6.4 28.9-6.5 6.9-1.9 14.2 0.9 18.1 6.9l56.3 87c3.6 6.2 3 14.2-1.8 19.7z m-84.1-71.9c-5.5 1.3-12.6 2.9-20.2 4.2-17.3 3-38.9 5.6-51.8-1.6-6.7-3.8-16.1-12.1-28.3-43-2.7-6.9-5-13.6-6.8-18.9h-76.6c-1.6 5.4-3.8 12.1-6.4 19.1-6.1 16.6-14.8 36.5-27.6 44.1-6.8 4-18.8 7.9-52.3 2.8-7.5-1.2-14.5-2.5-20-3.7l-37.3 67.9c3.3 3.5 7.3 7.9 11.2 12.7 19.4 23.2 22.2 34.4 22.5 41.5 0.3 7.7-1.8 20.1-21.3 47.3-4.5 6.3-9 12.1-12.5 16.5l39.8 63.9c5.7-1 13-2.2 20.9-3.1 32.9-4 44.4-0.4 50.9 3.1 6.3 3.5 15.9 11.5 26.8 41.3 2.2 6 4.1 11.8 5.5 16.6h76.9c1.6-4.8 3.8-10.9 6.4-17.1 11.8-29 20.5-37 26.7-40.7 6.8-4 18.9-8.1 53-4.2 8.3 1 16.1 2.2 22 3.2l39.5-63.3c-3.9-4.3-8.7-9.8-13.6-15.7-21.6-26.3-24.5-37.4-24.5-44.7s2.9-18.7 24.1-46.9c5.1-6.8 10.2-13 14.1-17.8l-41.1-63.5z m8.1-7.1M692 300.2c-47.1 0-85.4-38.3-85.4-85.4 0-47.1 38.3-85.4 85.4-85.4 47.1 0 85.4 38.3 85.4 85.4 0 47.2-38.3 85.4-85.4 85.4z m0-130.9c-25.2 0-45.6 20.4-45.6 45.6 0 25.2 20.4 45.6 45.6 45.6 25.2 0 45.6-20.4 45.6-45.6 0-25.2-20.4-45.6-45.6-45.6z m0 0M704.1 832.4c-17.7 0-32-14.3-32-32V576H604V724.8H421.9V576H162.1V799.8c0 17.7-14.3 32-32 32s-32-14.3-32-32v-832c0-17.7 14.3-32 32-32s32 14.3 32 32V236.2h276.1v64h-45.4V447.8H210.6v-147.5h-48.5V512h510.1v-54h64V800.4c-0.1 17.7-14.4 32-32.1 32zM701-64.7h4.6c16.4 0 29.7 13.3 29.7 29.7h-64c0-16.4 13.3-29.7 29.7-29.7z"  horiz-adv-x="1024" />

    
    <glyph glyph-name="kucunpandian" unicode="&#58995;" d="M920.4-25.5l-102.9 89.9c20.2 26.9 31.2 59.4 31.2 93.6 0 41.7-16.2 80.8-45.7 110.3-29.5 29.5-68.7 45.7-110.3 45.7s-80.9-16.2-110.4-45.6c-29.5-29.5-45.7-68.7-45.7-110.3s16.2-80.8 45.7-110.3c29.5-29.5 68.7-45.7 110.3-45.7 34.1 0 66.5 10.9 93.4 31l105.2-91.9c9.2-8 23.2-7.1 31.3 2.1 8.1 9.2 7.2 23.1-2.1 31.2zM581 158c0 61.6 50.1 111.7 111.7 111.7S804.3 219.5 804.3 158s-50.1-111.7-111.7-111.7S581 96.4 581 158zM879 640H147c-27 0-49-16.2-49-36.2v-631.2c0-20 22-36.2 49-36.2h461.2c17.7 0 32 14.3 32 32s-14.3 32-32 32H164V576h698v-356.9c0-13.9 14.7-25.2 33-25.2 18.2 0 33 11.3 33 25.2V603.9c0 19.9-22 36.1-49 36.1zM762.1 448H263.9c-17.7 0-32 14.3-32 32s14.3 32 32 32h498.2c17.7 0 32-14.3 32-32-0.1-17.7-14.4-32-32-32zM913.8 632.9l-128.4 188c-4.2 6.2-10.8 9.7-17.6 10.4-2.3 0.5-4.8 0.8-7.3 0.8H262.2c-15.2 0-27.8-10.6-31.1-24.7L110.6 630.9c-7.5-11-4.7-25.9 6.3-33.4l13.1-8.9c11-7.5 25.9-4.7 33.4 6.3l118.4 173.4H744l117-171.4c7.5-11 22.5-13.8 33.4-6.3l13.1 8.9c10.9 7.5 13.7 22.4 6.3 33.4z"  horiz-adv-x="1024" />

    
    <glyph glyph-name="tongzhi" unicode="&#59168;" d="M512-96c-60.8 0-108.8 41.6-124.8 96H160c-25.6 0-44.8 9.6-57.6 28.8-16 25.6-12.8 57.6 3.2 92.8 3.2 3.2 3.2 6.4 6.4 9.6L192 204.8V480c0 134.4 83.2 252.8 208 300.8C406.4 828.8 454.4 864 512 864s105.6-35.2 112-83.2C748.8 732.8 832 614.4 832 480v-275.2l80-73.6c3.2-3.2 6.4-6.4 6.4-9.6 16-35.2 19.2-67.2 3.2-92.8-12.8-19.2-32-28.8-57.6-28.8h-227.2c-16-54.4-64-96-124.8-96z m-54.4 96c9.6-19.2 32-32 54.4-32s44.8 12.8 54.4 32h-108.8z m409.6 64s3.2 9.6-3.2 25.6l-86.4 80c-6.4 6.4-9.6 12.8-9.6 22.4v288c0 115.2-76.8 214.4-185.6 246.4-16 3.2-25.6 22.4-22.4 38.4V768c0 16-22.4 32-48 32s-48-16-48-32v-3.2c3.2-16-6.4-32-22.4-38.4C332.8 694.4 256 595.2 256 480v-288c0-9.6-3.2-16-9.6-22.4L160 89.6c-6.4-12.8-6.4-22.4-3.2-25.6h710.4z"  horiz-adv-x="1024" />

    
    <glyph glyph-name="shenhe2" unicode="&#59034;" d="M812 277.5H692c-6.9 4.8-13.4 10.3-19.3 16.4-24.5 25.2-26 46.8-25.5 54.9l0.1 5.6v0.2c0 2.4 3.9 13.9 13.7 30.6 3.7 6.3 7.6 12.5 11.7 18.6 8.9 13.5 18.6 26.7 28.6 39.3 35 41.7 54.2 94.8 54.2 149.4 0 127.8-103 232.8-234.5 239h-17.9c-132.1-6.2-235.7-111.2-235.7-239 0.1-54.9 19.5-108.2 54.6-150.2l1.8-2.3c9.6-12.2 18.7-24.8 27.4-37.7 17.5-26.6 24.6-44.4 24.4-47.6v-5.7c0.5-8-0.9-29.2-24.2-54l-1.4-1.4c-5.5-5.7-11.9-11.2-19.2-16.2H211.2c-79.9 0.1-115.5-31.2-115.5-101.4v-156.2c0-22.1 8.6-42.9 24.3-58.6 15.7-15.5 36.4-24.2 58.4-24.2l666.2 1.4c45.6 0.2 82.5 37.1 82.5 82.7V176c0.1 70.2-35.4 101.6-115.1 101.5zM156.9 19.8V175.9c0 18.9 2.4 27.8 8.9 32.9 7 5.4 19.8 7.6 45.4 7.6h138l7.4 4.8c13.6 8.5 26.2 18.6 37.5 30 39.8 41 43.9 80.9 42.8 101.3 0.8 20.9-9.6 46-34.5 83.9a630.37 630.37 0 0 1-33.7 46c-25.7 31-39.8 70-39.9 110.3 0 95 77.3 173.1 175.9 177.8h14.8c98-4.7 174.7-82.7 174.7-177.7 0-40.4-14.3-79.5-40.2-110.5-11.4-14.3-22.3-29.2-32.4-44.4-4.7-7.1-9.2-14.4-13.5-21.8-16-27.6-22.6-46.6-22-63.6-1.1-20.3 3-60.2 42.7-101.2 11.3-11.5 23.9-21.6 37.5-30.2l7.6-4.8h138.5c49 0 53.6-7.1 53.6-40.3v-154.8c0-5.7-2.2-11.1-6.3-15.2-4-4-9.5-6.3-15.2-6.3l-666.2-1.4c-5.7 0-11.2 2.2-15.2 6.3-3.9 3.9-6.1 9.4-6.2 15.2z m0 0M351 128.4h321.7v-61.3H351z"  horiz-adv-x="1024" />

    
    <glyph glyph-name="tubiao_fukuandan" unicode="&#58931;" d="M40.708083-127.99895700000002a20.867914 20.867914 0 0 0-20.867914 20.867914V872.897133c0 11.525349 9.342565 20.867914 20.867914 20.867913H924.04165c11.514915 0 20.853306-9.326914 20.867914-20.842872 0.00626-4.709888 0.572824-472.160544 1.043396-573.476352 0.053213-11.524305-9.245529-20.910693-20.770878-20.964949h-0.099123c-11.480483-0.001043-20.81157 9.278918-20.865827 20.770878-0.413185 89.02878-0.90045 460.384781-1.018354 552.777468H61.575996v-938.280871c73.220292 0.045909 318.73547 0.231634 412.769419 0.692815h0.104339c11.477353 0 20.809483-9.275788 20.865827-20.765661 0.056343-11.525349-9.240312-20.913823-20.765661-20.970167-110.634374-0.542566-430.611485-0.703249-433.83036-0.705335l-0.011477 0.001043zM732.415773 505.308834H227.724238c-11.525349 0-20.867914 9.342565-20.867914 20.867914s9.342565 20.867914 20.867914 20.867913h504.691535c11.525349 0 20.867914-9.342565 20.867913-20.867913s-9.342565-20.867914-20.867913-20.867914zM480.070527 34.010133999999994c-11.525349 0-20.867914 9.342565-20.867914 20.867914v510.293526c0 11.525349 9.342565 20.867914 20.867914 20.867914s20.867914-9.342565 20.867914-20.867914v-510.293526c0-11.525349-9.343608-20.867914-20.867914-20.867914zM731.852339 323.36984199999995H228.290802c-11.525349 0-20.867914 9.342565-20.867914 20.867914s9.342565 20.867914 20.867914 20.867913h503.561537c11.525349 0 20.867914-9.342565 20.867914-20.867913s-9.342565-20.867914-20.867914-20.867914zM492.697702 540.404491a20.790702 20.790702 0 0 0-13.757172 5.18359L298.411165 704.017281c-8.662271 7.602181-9.522029 20.786529-1.919848 29.4488 7.601138 8.663314 20.786529 9.522029 29.449843 1.919848l180.529365-158.428157c8.662271-7.602181 9.522029-20.786529 1.919848-29.4488a20.818874 20.818874 0 0 0-15.692671-7.104481zM481.522934 540.404491c-5.799193 0-11.568128 2.40294-15.692671 7.104481-7.602181 8.662271-6.742423 21.846619 1.919848 29.4488l180.531451 158.428157c8.664358 7.602181 21.849749 6.742423 29.449843-1.919848 7.602181-8.662271 6.743466-21.846619-1.919848-29.4488L495.280106 545.5891240000001a20.791746 20.791746 0 0 0-13.757172-5.184633zM987.153525 35.34255099999996H587.467245c-11.525349 0-20.867914 9.342565-20.867914 20.867913s9.342565 20.867914 20.867914 20.867914h399.68628c11.525349 0 20.867914-9.342565 20.867914-20.867914s-9.342565-20.867914-20.867914-20.867913zM987.138917 41.60396800000001a20.777138 20.777138 0 0 0-12.859851 4.445909L826.515456 161.87827500000003c-9.069195 7.109698-10.65933 20.227269-3.548589 29.297508 7.108655 9.070239 20.227269 10.65933 29.297507 3.549632L1000.027984 78.89597300000003c9.071282-7.109698 10.65933-20.227269 3.548589-29.297507-4.115153-5.250367-10.245102-7.994498-16.437656-7.994498zM839.403479-81.51672199999996c-6.193597 0-12.32146 2.743087-16.437655 7.995541-7.109698 9.070239-5.520607 22.187809 3.548588 29.297507l147.76361 115.828398c9.072325 7.110742 22.188853 5.520607 29.297508-3.549632 7.109698-9.070239 5.522693-22.186766-3.548589-29.297507L852.263331-77.07081300000004a20.781312 20.781312 0 0 0-12.859852-4.445909z"  horiz-adv-x="1025" />

    
    <glyph glyph-name="tubiao_zhangwu" unicode="&#58943;" d="M692.032017 547.020914H250.054222c-11.408211 0-20.655822 9.247612-20.655823 20.655822s9.247612 20.655822 20.655823 20.655823h441.977795c11.408211 0 20.655822-9.247612 20.655822-20.655823s-9.247612-20.655822-20.655822-20.655822zM613.47999 347.71908099999996H250.054222c-11.408211 0-20.655822 9.247612-20.655823 20.655822s9.247612 20.655822 20.655823 20.655823h363.425768c11.408211 0 20.655822-9.247612 20.655822-20.655823s-9.247612-20.655822-20.655822-20.655822zM471.043635 161.76813800000002H250.054222c-11.408211 0-20.655822 9.247612-20.655823 20.655823s9.247612 20.655822 20.655823 20.655822h220.989413c11.408211 0 20.655822-9.247612 20.655823-20.655822s-9.247612-20.655822-20.655823-20.655823zM471.043635-58.98683200000005H109.311645c-16.64756 0-30.191583 13.340563-30.191583 29.738188V794.569584c0 16.397625 13.544023 29.73922 30.191583 29.739221h121.737154c11.408211 0 20.655822-9.247612 20.655823-20.655823s-9.247612-20.655822-20.655823-20.655822H120.430674v-800.671314h350.611929c11.408211 0 20.655822-9.248644 20.655822-20.655823 0.001033-11.408211-9.246579-20.656855-20.65479-20.656855zM842.310354 428.22205c-11.408211 0-20.655822 9.247612-20.655823 20.655822V782.99716H692.02582c-11.408211 0-20.655822 9.247612-20.655823 20.655822s9.247612 20.655822 20.655823 20.655823h140.747741c16.64756 0 30.191583-13.340563 30.191582-29.739221v-345.691712c0.001033-11.408211-9.246579-20.655822-20.654789-20.655822zM592.824167 733.218694h-261.967467c-22.779241 0-41.311645 18.532404-41.311644 41.311644V824.770462c0 22.779241 18.532404 41.311645 41.311644 41.311645H592.823135c22.779241 0 41.311645-18.532404 41.311644-41.311645v-50.240124c0.001033-22.779241-18.532404-41.311645-41.310612-41.311644z m-261.960237 41.327136c0.012393 0 0.036148-0.022721 0.053705-0.032016l261.906532 0.016524c-0.029951 0.003098 0.005164 0.039246 0.016525 0.060935l-0.016525 50.170927c-0.006197-0.01859-0.03718 0.013426-0.060934 0.024787l-261.89827-0.016525c0.021689-0.003098-0.013426-0.039246-0.023755-0.060935l0.016525-50.170926c0 0.005164 0.002066 0.00723 0.006197 0.007229zM767.26362-112.35528c-63.061193 0-122.346501 24.556674-166.936225 69.146398-44.589724 44.589724-69.146398 103.876065-69.146398 166.936225s24.556674 122.345469 69.146398 166.936225c44.589724 44.589724 103.875032 69.146398 166.936225 69.146398s122.346501-24.556674 166.936225-69.146398c44.590757-44.589724 69.147431-103.876065 69.147431-166.936225s-24.556674-122.345469-69.147431-166.936225c-44.589724-44.589724-103.875032-69.146398-166.936225-69.146398z m0 430.853602c-107.39685 0-194.770979-87.374129-194.770979-194.770979s87.374129-194.770979 194.770979-194.770978 194.772011 87.374129 194.772011 194.770978-87.375161 194.770979-194.772011 194.770979zM842.478699 135.60340799999994H692.049574c-11.408211 0-20.655822 9.247612-20.655822 20.655823s9.247612 20.655822 20.655822 20.655822h150.429125c11.408211 0 20.655822-9.247612 20.655822-20.655822s-9.247612-20.655822-20.655822-20.655823zM767.26362-4.872707999999989c-11.408211 0-20.655822 9.247612-20.655822 20.655822V167.88226199999997c0 11.408211 9.247612 20.655822 20.655822 20.655822s20.655822-9.247612 20.655822-20.655822v-152.099148c0-11.407178-9.247612-20.655822-20.655822-20.655822zM842.310354 81.37464499999999H692.217919c-11.408211 0-20.655822 9.247612-20.655822 20.655822s9.247612 20.655822 20.655822 20.655823h150.092435c11.408211 0 20.655822-9.247612 20.655822-20.655823s-9.247612-20.655822-20.655822-20.655822zM771.021947 146.06454900000006a20.579396 20.579396 0 0 0-13.617351 5.130907l-53.808417 47.222308c-8.574232 7.524916-9.425252 20.575265-1.900336 29.150529 7.523883 8.574232 20.574232 9.424219 29.150529 1.900336l53.808418-47.222308c8.574232-7.524916 9.425252-20.575265 1.900335-29.15053a20.607281 20.607281 0 0 0-15.533178-7.031242zM767.702556 146.06454900000006a20.604183 20.604183 0 0 0-15.533178 7.032275c-7.524916 8.574232-6.673896 21.62458 1.900335 29.149497l53.80945 47.222308c8.575265 7.524916 21.62458 6.673896 29.15053-1.900336 7.524916-8.574232 6.673896-21.62458-1.900336-29.149496l-53.80945-47.222308a20.57733 20.57733 0 0 0-13.617351-5.13194z"  horiz-adv-x="1024" />

    
    <glyph glyph-name="fengxiantishi" unicode="&#59342;" d="M511.488-117.248c-5.632 0-10.752 1.536-15.36 4.608C371.712-37.376 281.6 25.088 215.04 105.472c-76.8 92.16-114.176 199.68-118.272 337.92v2.56c0 7.68-0.512 14.848-0.512 22.016s0 14.848 0.512 22.016V632.32c0 16.384 13.312 30.208 30.208 30.208 147.968 0 285.184 79.872 358.4 208.384 5.12 9.216 15.36 15.36 26.112 15.36 10.752 0 20.992-5.632 26.112-15.36 73.216-128.512 210.944-208.384 358.912-208.384 16.384 0 30.208-13.312 30.208-30.208v-188.928c0-2.048 0-4.096-0.512-5.632-10.24-292.864-172.032-413.184-398.848-550.912-5.12-2.56-10.24-4.096-15.872-4.096zM157.184 444.416c3.584-123.904 36.864-219.136 104.448-300.544 58.368-70.656 139.776-128 250.368-195.584 209.92 128 347.136 236.032 354.816 496.64 0 1.536 0 2.56 0.512 4.096V603.648c-141.824 9.216-272.384 81.92-354.816 197.12-83.456-115.2-214.016-187.904-355.328-197.12v-114.688c0-7.168-0.512-14.336-0.512-20.992 0-7.168 0-13.824 0.512-20.992v-2.56zM522.752 122.368c-3.584 0-7.168 0.512-10.752 2.048-15.36 6.144-23.04 23.552-17.408 38.912l68.096 175.616H438.784c-9.728 0-18.944 4.608-24.576 12.8-5.632 8.192-7.168 18.432-3.584 27.648l72.704 204.8c5.632 15.872 22.528 24.064 38.4 18.432 15.872-5.632 24.064-22.528 18.432-38.4L481.28 398.848h125.44c9.728 0 19.456-5.12 24.576-13.312 5.632-8.192 6.656-18.432 3.072-27.648l-83.968-216.576c-4.096-11.776-15.36-18.944-27.648-18.944z"  horiz-adv-x="1024" />

    
    <glyph glyph-name="moxingyunhang" unicode="&#58901;" d="M771.7 279.6c-13.9 0-27.8-4.4-41.7-8.9L590.8 515c23.2 22.2 41.7 48.9 41.7 84.4 0 62.2-51 111.1-115.9 111.1s-115.9-53.3-115.9-111.1c0-26.6 9.3-53.3 27.8-75.5L284.7 275.2c-9.3 0-18.5 4.4-27.8 4.4-64.9 0-115.9-48.9-115.9-111 0-62.2 51-111.1 115.9-111.1 55.7 0 102 40 111.3 93.3h287.5c9.3-53.3 55.7-93.3 111.3-93.3 64.9 0 115.9 48.9 115.9 111.1 0.1 62.1-46.3 111-111.2 111zM665 195.2H372.9c-4.6 26.7-23.2 48.9-41.7 62.2l139.1 239.9c13.9-8.9 32.5-8.9 46.4-8.9 9.3 0 23.2 0 32.5 4.4L693 248.5c-14-13.3-23.3-31.1-28-53.3z"  horiz-adv-x="1024" />

    
    <glyph glyph-name="yewu" unicode="&#58988;" d="M417.233455 558.871273a34.909091 34.909091 0 0 0 34.90909 34.909091h275.316364a34.909091 34.909091 0 0 0 0-69.818182H452.142545a34.909091 34.909091 0 0 0-34.90909 34.909091z m34.90909-147.549091h275.316364a34.909091 34.909091 0 0 1 0 69.818182H452.142545a34.909091 34.909091 0 0 1 0-69.818182z m526.75491-225.466182v-200.238545c0-41.332364-33.652364-74.938182-74.938182-74.938182H122.973091c-41.332364 0-74.938182 33.652364-74.938182 74.938182v200.238545c0 25.6 12.939636 48.221091 32.535273 61.719273V646.516364a115.153455 115.153455 0 0 0 115.013818 115.013818h44.497455a114.781091 114.781091 0 0 0 108.264727 77.591273h483.095273a115.2 115.2 0 0 0 115.013818-115.060364V247.621818c19.549091-13.591273 32.442182-36.165818 32.442182-61.765818zM303.057455 724.061091v-463.173818h81.035636a34.909091 34.909091 0 0 0 34.722909-31.371637c1.861818-18.292364 38.772364-43.706182 94.626909-43.706181s92.765091 25.460364 94.626909 43.706181a34.909091 34.909091 0 0 0 34.722909 31.371637h233.704728V724.061091a45.288727 45.288727 0 0 1-45.195637 45.242182H348.253091a45.335273 45.335273 0 0 1-45.195636-45.242182zM150.341818 646.516364v-385.629091h82.850909V691.665455H195.490909a45.242182 45.242182 0 0 1-45.149091-45.149091z m758.737455-460.660364a5.12 5.12 0 0 1-5.12 5.166545h-235.845818c-22.853818-44.404364-83.130182-75.077818-154.624-75.077818s-131.770182 30.673455-154.717091 75.077818H122.973091a5.12 5.12 0 0 1-5.12-5.166545v-200.238545c0-2.885818 2.234182-5.12 5.12-5.12h780.986182a5.12 5.12 0 0 1 5.12 5.12v200.238545z"  horiz-adv-x="1024" />

    
    <glyph glyph-name="jiagebiao" unicode="&#58893;" d="M199.111111 839.111111h625.777778a85.333333 85.333333 0 0 0 85.333333-85.333333v-739.555556a85.333333 85.333333 0 0 0-85.333333-85.333333H199.111111a85.333333 85.333333 0 0 0-85.333333 85.333333V753.777778a85.333333 85.333333 0 0 0 85.333333 85.333333z m26.88-55.466667a56.888889 56.888889 0 0 1-56.888889-56.888888v-685.511112a56.888889 56.888889 0 0 1 56.888889-56.888888h572.017778a56.888889 56.888889 0 0 1 56.888889 56.888888V726.755556a56.888889 56.888889 0 0 1-56.888889 56.888888zM483.555556 446.008889H252.586667a28.444444 28.444444 0 0 0 0 56.888889H483.555556a28.444444 28.444444 0 0 0 0-56.888889z m0 96H252.586667a28.444444 28.444444 0 0 0 0 56.888889H483.555556a28.444444 28.444444 0 0 0 0-56.888889z m-118.186667-146.915556a28.444444 28.444444 0 0 0-28.444445 28.444445V570.311111a28.444444 28.444444 0 0 0 56.888889 0v-146.915555a28.444444 28.444444 0 0 0-28.444444-28.302223z m5.688889 158.293334H348.444444a28.444444 28.444444 0 0 0 0 39.537777l101.546667 101.688889a28.444444 28.444444 0 1 0 39.395556-39.537777l-101.404445-96.142223z m0 0H348.444444l-95.857777 101.688889a28.444444 28.444444 0 1 0 39.537777 39.537777l95.857778-96.142222a33.848889 33.848889 0 0 0 5.546667-39.537778z m-118.897778-313.742223h232.106667a28.444444 28.444444 0 1 0 0-55.466666H252.16a27.733333 27.733333 0 0 0 0 55.466666z m0-110.933333h486.542222a28.444444 28.444444 0 1 0 0-55.466667H252.16a28.444444 28.444444 0 0 0 0 55.466667z"  horiz-adv-x="1024" />

    
    <glyph glyph-name="moxing___" unicode="&#58880;" d="M991.536 312.56399999999996c1.636 36.864-33.096 50.256-33.096 50.256l-191.908 82.136s0.468 142.704 0 181.108c-0.584 38.64-34.732 52.032-34.732 52.032s-151.796 61.28-196.936 83.8c-23.504 11.732-47.948 0-47.948 0S344.128 697.888 299.924 679.752c-40.348-16.476-39.76-52.032-39.76-52.032v-181.7s-125.836-55.116-178.696-76.212c-50.52-20.148-49.116-62.464-49.116-62.464s0.468-144.956 0-182.764c-0.468-40.772 35.904-53.692 35.904-53.692s122.088-62.224 180.444-89.132c43.152-19.912 71.104-0.592 71.104-0.592l191.672 95.532s151.56-72.3 187.228-95.056c41.4-26.316 69.468-4.504 69.468-4.504s168.868 86.76 195.296 98.968c28.184 13.04 28.184 45.276 28.184 45.276s-1.756 154.32-0.12 191.18ZM286.708 240.5l-175.416 77.992 175.416 77.988 178.692-77.16-178.692-78.82Zm196.82-115.68l-168.752-85.456v152.544l168.752 73.72v-140.808Zm27.716 419.224L321.44 626.184l189.8 84.98 197.4-84.98-197.4-82.14Zm30.288-50.372l167.112 73.72v-124.092l-167.112-75.384v125.756Zm199.388-253.172l-174.6 77.992 167.12 77.988 181.96-77.988-174.48-77.992Zm192.728-120.776l-165.48-80.48v152.664l165.48 73.72v-145.904Z"  horiz-adv-x="1024" />

    
    <glyph glyph-name="daiban" unicode="&#58990;" d="M689.05 710.18h46.97v-148.69h-46.97zM689.05 532.46h46.97v-45.82h-46.97zM712.54 379.16c-59.61 0-115.66 23.21-157.81 65.37-42.15 42.15-65.37 98.2-65.37 157.81S512.57 718 554.72 760.15c42.15 42.15 98.2 65.37 157.81 65.37s115.66-23.21 157.81-65.37c42.15-42.15 65.37-98.2 65.37-157.81s-23.21-115.66-65.37-157.81c-42.15-42.16-98.19-65.37-157.8-65.37z m0 399.39c-97.16 0-176.21-79.05-176.21-176.21s79.05-176.21 176.21-176.21 176.21 79.05 176.21 176.21-79.05 176.21-176.21 176.21zM701.52-49.08H152.28c-38.85 0-70.45 31.61-70.45 70.46V646.14c0 38.85 31.61 70.46 70.45 70.46h420.93l-17.5-34.18c-12.87-25.15-19.4-52.09-19.4-80.07 0-97.16 79.05-176.21 176.21-176.21 10.19 0 20.58 0.99 31.74 3.02l27.69 5.04v-412.82c0.02-38.85-31.59-70.46-70.43-70.46z m-549.24 718.7c-12.95 0-23.48-10.54-23.48-23.49v-624.77c0-12.95 10.54-23.48 23.48-23.48h549.23c12.95 0 23.48 10.54 23.48 23.48V379.54c-4.18-0.25-8.33-0.38-12.46-0.38-59.61 0-115.66 23.21-157.81 65.37-42.15 42.15-65.37 98.2-65.37 157.81 0 23.09 3.5 45.6 10.42 67.29H152.28zM234.99 512.58h200.56v-46.97H234.99zM234.99 357.24h385.56v-46.97H234.99zM234.99 201.91h385.56v-46.97H234.99z"  horiz-adv-x="1024" />

    
    <glyph glyph-name="yidizhuanyishenqingbanlijinduchaxun" unicode="&#58899;" d="M105.1 433.1c-1.9 0-3.8 0.2-5.7 0.5-17 3.1-28.3 19.4-25.1 36.4C113 680.8 296.7 833.7 511.2 833.7s398.2-152.9 436.9-363.6c1.7-9.1-0.8-18.5-6.7-25.7-5.9-7.1-14.8-11.3-24-11.3H802.2c-17.3 0-31.3 14-31.3 31.3s14 31.3 31.3 31.3h75.6c-46.6 161.6-195.2 275.4-366.6 275.4-184.2 0-342.1-131.3-375.4-312.3-2.8-15.1-15.9-25.7-30.7-25.7zM511.2-55C296.7-55 113 97.9 74.3 308.6c-1.7 9.1 0.8 18.5 6.7 25.7 5.9 7.1 14.8 11.3 24 11.3h115.1c17.3 0 31.3-14 31.3-31.3s-14-31.3-31.3-31.3h-75.6c46.6-161.6 195.2-275.4 366.6-275.4 184.2 0 342.1 131.3 375.4 312.3 3.1 17 19.4 28.3 36.4 25.1 17-3.1 28.3-19.4 25.1-36.4C909.3 97.9 725.6-55 511.2-55zM709.6 339.3c-8 0-16 3.1-22.1 9.2L554.8 481.2c-12.2 12.2-12.2 32 0 44.2 12.2 12.2 32 12.2 44.2 0l132.8-132.8c12.2-12.2 12.2-32 0-44.2-6.1-6.1-14.2-9.1-22.2-9.1zM576.9 206.5c-8 0-16 3.1-22.1 9.2-12.2 12.2-12.2 32 0 44.2l132.8 132.8c12.2 12.2 32 12.2 44.2 0 12.2-12.2 12.2-32 0-44.2L599 215.7c-6.1-6.1-14.1-9.2-22.1-9.2zM503.1 339.3c-8 0-16 3.1-22.1 9.2L348.2 481.2c-12.2 12.2-12.2 32 0 44.2 12.2 12.2 32 12.2 44.2 0l132.8-132.8c12.2-12.2 12.2-32 0-44.2-6.1-6.1-14.1-9.1-22.1-9.1zM370.3 206.5c-8 0-16 3.1-22.1 9.2-12.2 12.2-12.2 32 0 44.2L481 392.7c12.2 12.2 32 12.2 44.2 0 12.2-12.2 12.2-32 0-44.2L392.5 215.7c-6.1-6.1-14.1-9.2-22.2-9.2z"  horiz-adv-x="1024" />

    
    <glyph glyph-name="daishouhuo" unicode="&#58913;" d="M374.2 125.5c0-47.6-38.6-86.1-86.1-86.1-47.6 0-86.2 38.6-86.2 86.1 0 47.6 38.6 86.2 86.2 86.2 47.5 0 86.1-38.6 86.1-86.2z m482.4 0c0-47.6-38.6-86.1-86.2-86.1s-86.2 38.6-86.2 86.1c0 47.6 38.6 86.2 86.2 86.2s86.2-38.6 86.2-86.2z m77 293.6l-77 137.2c-15.7 19-26.4 34.5-51.7 34.5H684.3V694.2c0 19-15.5 34.5-34.5 34.5H98.5c-19 0-34.5-15.5-34.5-34.5v-516.9c0-19 15.5-34.5 34.5-34.5h68.7c8.5 59.4 59.1 105.3 120.8 105.3 61.7 0 112.4-46 120.8-105.3h240.8c8.5 59.4 59.2 105.3 120.8 105.3 61.7 0 112.4-46 120.8-105.3h34.3c19 0 34.5 15.5 34.5 34.5V349.5c0 32.7-26.4 69.6-26.4 69.6z m-214.8-69.6V521.8h84.3c5.6 0 13.3-8.1 13.3-8.1L889 378.8c6.4-9.5 13.4-20.7 13.4-29.3H718.8z m0 0"  horiz-adv-x="1024" />

    
    <glyph glyph-name="pandian" unicode="&#58902;" d="M769.3 82.7H243.4c-11.6 0-21 9.4-21 21V512.8c0 6.7 3.2 13 8.6 16.9l263 193.5c7.4 5.4 17.5 5.4 24.9 0l263-193.5c5.4-4 8.6-10.2 8.6-16.9v-409.1c-0.2-11.6-9.6-21-21.2-21z m-504.9 42h483.9V502.2l-242 178-242-178v-377.5zM489.2 258.7c-4.3 0-8.6 1.3-12.3 4L366 343.1c-9.4 6.8-11.5 19.9-4.7 29.3 6.8 9.4 20 11.5 29.3 4.7l94.9-68.8 132.6 160.6c7.4 8.9 20.6 10.2 29.6 2.8 8.9-7.4 10.2-20.6 2.8-29.6l-145-175.8c-4.2-5-10.2-7.6-16.3-7.6z"  horiz-adv-x="1024" />

    
    </font>
</defs>
</svg>
